<?xml version="1.0" encoding="UTF-8"?>
<svg width="640px" height="310px" viewBox="0 0 640 310" version="1.1" xmlns="http://www.w3.org/2000/svg" xmlns:xlink="http://www.w3.org/1999/xlink">
    <title>rdbms header</title>
    <g id="rdbms-header" stroke="none" stroke-width="1" fill="none" fill-rule="evenodd">
        <rect fill="#F5FCFF" x="0" y="0" width="640" height="310"></rect>
        <g id="Group-6" transform="translate(164.000000, 67.000000)">
            <g id="Group">
                <rect id="Rectangle" fill="#66C4FF" x="28.4594595" y="0" width="252.972973" height="148.142331"></rect>
                <rect id="Rectangle" fill="#F5FCFF" x="36.8918919" y="8.46527607" width="236.108108" height="131.211779"></rect>
                <path d="M281.432432,0 L281.432432,148.142331 L28.4594595,148.142331 L28.4594595,0 L281.432432,0 Z M280.432,1 L29.459,1 L29.459,147.142 L280.432,147.142 L280.432,1 Z" id="Rectangle" fill="#10162F" fill-rule="nonzero"></path>
                <path d="M273,8.46527607 L273,139.677055 L36.8918919,139.677055 L36.8918919,8.46527607 L273,8.46527607 Z M271.999,9.465 L37.891,9.465 L37.891,138.677 L271.999,138.677 L271.999,9.465 Z" id="Rectangle" fill="#10162F" fill-rule="nonzero"></path>
                <polygon id="Path-4" fill="#66C4FF" points="0.527027027 166.660123 0.527027027 176 311.787831 176 311.787831 166.660123"></polygon>
                <polygon id="Line-3" fill="#10162F" fill-rule="nonzero" points="311.779836 166.160123 311.779836 167.160123 0.779836016 167.160123 0.779836016 166.160123"></polygon>
                <path d="M312,147.147461 L312,157.013705 L281.432432,176 L28.4594595,176 L0,157.013705 L0,147.147461 L312,147.147461 Z M311,148.147 L1,148.147 L1,156.479 L28.761,174.999 L281.147,174.999 L311,156.457 L311,148.147 Z" id="Rectangle" fill="#10162F" fill-rule="nonzero" transform="translate(156.000000, 161.573730) scale(1, -1) translate(-156.000000, -161.573730) "></path>
            </g>
            <g id="Group-4" transform="translate(76.000000, 22.000000)">
                <rect id="Rectangle" fill="#10162F" x="0" y="0" width="52" height="52"></rect>
                <path d="M29.0087807,41.7175403 C28.1967045,41.8720578 27.3628777,41.9651987 26.5123097,41.9919535 L25.973956,41.9999793 L25.9733913,42.9999796 L26.048179,42.9999318 C27.1135418,42.9968724 28.1650816,42.8959727 29.1950247,42.700044 L29.0087807,41.7175403 Z M22.9872325,41.7167811 C21.9911485,41.5269885 21.0278068,41.2448495 20.1064545,40.8796112 L19.7379622,41.809242 C20.7255982,42.2007545 21.7500055,42.4990338 22.8000874,42.6991134 L22.9872325,41.7167811 Z M34.6116439,39.4871501 C33.7723701,40.0241476 32.8796525,40.4849534 31.9432468,40.859812 L32.3158023,41.7878224 C33.30527,41.3916555 34.2541665,40.9030677 35.1507526,40.3293863 L34.6116439,39.4871501 Z M17.4195662,39.5070686 C16.5726467,38.9679348 15.7798555,38.3513361 15.05117,37.6672502 L14.3665273,38.3961291 C15.1425178,39.1246481 15.9851282,39.7793943 16.8829742,40.3509106 L17.4195662,39.5070686 Z M38.9524491,35.3952401 C38.3629403,36.2065442 37.6990657,36.9603185 36.9708372,37.6465511 L37.6567939,38.3741935 C38.431334,37.6443028 39.1363893,36.8433633 39.7619005,35.9824274 L38.9524491,35.3952401 Z M13.0055046,35.3371015 C12.4226388,34.5273529 11.9135927,33.6609161 11.4882208,32.7476454 L10.5817517,33.1699177 C11.0315183,34.1355542 11.5713276,35.0562675 12.1931875,35.9203188 L13.0055046,35.3371015 Z M41.5038375,29.9691492 C41.2535585,30.9496927 40.9127068,31.8940142 40.4907194,32.792677 L41.395908,33.2176869 C41.8478023,32.2553292 42.2086352,31.2512225 42.4726955,30.2167664 L41.5038375,29.9691492 Z M10.4971887,29.9731675 C10.252889,29.0170919 10.0947032,28.0265603 10.0313819,27.0103232 L9.03331077,27.0724041 C9.09995041,28.1420051 9.26619553,29.1951208 9.52852523,30.2215458 L10.4971887,29.9731675 Z M40,26 L42,26 L42,27 L42.9673835,27.0612012 C42.9890999,26.7089285 43,26.3550833 43,26 L43,25 L40,25 L40,26 Z M37,26 L37,25 L34,25 L34,26 L37,26 Z M31,26 L31,25 L28,25 L28,26 L31,26 Z M27,22 L26,22 L26,25 L27,25 L27,22 Z M10.7882301,21.0260184 L9.83753619,20.7158873 C9.50793795,21.7246342 9.27324186,22.7652227 9.13769541,23.8269458 L10.1296757,23.9533389 C10.2583921,22.945239 10.4809204,21.9664554 10.7882301,21.0260184 Z M27,16 L26,16 L26,19 L27,19 L27,16 Z M13.6821129,15.788089 L12.9123818,15.1497207 C12.2326239,15.968786 11.6306737,16.849858 11.1153227,17.7813282 L11.9903443,18.265412 C12.4771095,17.3856132 13.0443427,16.5565285 13.6821129,15.788089 Z M18.359199,11.9388646 L17.8810692,11.0605754 C16.9459895,11.5697635 16.060794,12.1659252 15.2371141,12.8403403 L15.8710456,13.6137296 C16.6434984,12.9813016 17.4761889,12.4197071 18.359199,11.9388646 Z M27,10 C26.5153605,10 26.1820272,10 26,10 L26,13 L27,13 L27,10 Z M24.0061935,10.1230164 L23.8829353,9.13064178 C22.8208334,9.26265761 21.7796185,9.49383491 20.7699698,9.81996608 L21.077152,10.7716168 C22.0183695,10.4675765 22.997721,10.2483721 24.0061935,10.1230164 Z" id="Oval" fill="#FFFFFF" fill-rule="nonzero"></path>
                <path d="M29,23 C37.836556,23 45,15.836556 45,7 C40.2243707,7 34.8910373,7 29,7 C29,14.1308594 29,19.4641927 29,23 Z" id="Oval" fill="#66C4FF" transform="translate(37.000000, 15.000000) rotate(-90.000000) translate(-37.000000, -15.000000) "></path>
                <g id="Group-2" transform="translate(38.000000, 8.000000)">
                    <path d="M0.627009465,62.3059774 L0.627009465,81.3736854 C0.627013549,82.5775385 1.0793795,83.7374402 1.89442331,84.6234232 C8.25825094,91.5411411 17.9601098,95 31,95 C44.0394084,95 53.7481656,91.5413967 60.1262717,84.62419 C60.9436408,83.7377461 61.3974422,82.5761437 61.3974422,81.3703763 L61.3974422,62.3059774 L61.3974422,62.3059774" id="Path-2-Copy-2" stroke="#10162F" fill="#66C4FF" stroke-linejoin="round"></path>
                    <ellipse id="Oval-Copy-2" fill="#F5FCFF" cx="31" cy="62.3059774" rx="31" ry="14.3783025"></ellipse>
                    <path d="M1.12700947,62.3059774 L1.12700947,81.3736837 C1.12700947,82.4521374 1.53225865,83.4912162 2.26240135,84.2849085 C8.5215838,91.0888732 18.0895573,94.5 31,94.5 C43.9101201,94.5 53.4851667,91.0890291 59.7586867,84.2852485 C60.4345856,83.5522304 60.8329717,82.6091789 60.8902624,81.6188494 L60.8974422,81.3703763 L60.8974422,62.3059774 L61.8974422,62.3059774 L61.8974422,81.3703763 C61.8974422,82.7017479 61.3963674,83.9843507 60.4938589,84.9631289 C54.0111644,91.9937642 44.1686966,95.5 31,95.5 C17.8306623,95.5 7.99491808,91.9934089 1.52644527,84.9619378 C0.686498421,84.0488843 0.195392206,82.8723612 0.133640808,81.6388144 L0.127009465,81.3736854 L0.127009465,62.3059774 L1.12700947,62.3059774 Z" id="Path-2-Copy-2" fill="#10162F" fill-rule="nonzero"></path>
                    <path d="M31,47.9276749 C34.0817489,47.9276749 37.0584682,48.1362462 39.8681199,48.5246145 L40.7983977,48.6606903 C41.106371,48.7082423 41.4121966,48.7579746 41.7157895,48.8098476 L42.6197847,48.9718495 C43.9654748,49.2243675 45.2642281,49.5194368 46.50829,49.8534608 L47.329477,50.0818751 C48.0069056,50.2769637 48.6669223,50.4838287 49.3081974,50.7018533 L50.0686463,50.9687999 C57.3310463,53.6003016 62,57.7002454 62,62.3059774 C62,66.9117094 57.3310463,71.0116532 50.0686463,73.6431549 L49.3081974,73.9101016 C48.6669223,74.1281262 48.0069056,74.3349911 47.329477,74.5300798 L46.50829,74.758494 C45.2642281,75.092518 43.9654748,75.3875874 42.6197847,75.6401053 L41.7157895,75.8021072 C41.4121966,75.8539802 41.106371,75.9037125 40.7983977,75.9512645 L39.8681199,76.0873403 C37.0584682,76.4757086 34.0817489,76.6842799 31,76.6842799 C27.9182511,76.6842799 24.9415318,76.4757086 22.1318801,76.0873403 L21.2016023,75.9512645 C20.893629,75.9037125 20.5878034,75.8539802 20.2842105,75.8021072 L19.3802153,75.6401053 C18.0345252,75.3875874 16.7357719,75.092518 15.49171,74.758494 L14.670523,74.5300798 C13.9930944,74.3349911 13.3330777,74.1281262 12.6918026,73.9101016 L11.9313537,73.6431549 C4.66895372,71.0116532 0,66.9117094 0,62.3059774 C0,57.7002454 4.66895372,53.6003016 11.9313537,50.9687999 L12.6918026,50.7018533 C13.3330777,50.4838287 13.9930944,50.2769637 14.670523,50.0818751 L15.49171,49.8534608 C16.7357719,49.5194368 18.0345252,49.2243675 19.3802153,48.9718495 L20.2842105,48.8098476 C20.5878034,48.7579746 20.893629,48.7082423 21.2016023,48.6606903 L22.1318801,48.5246145 C24.9415318,48.1362462 27.9182511,47.9276749 31,47.9276749 Z M31,48.9276749 C28.0058808,48.9276749 25.1176445,49.1285345 22.3941827,49.4998117 L21.4925457,49.6298408 C21.1940881,49.6752599 20.8977455,49.7227412 20.6035988,49.7722429 L19.7278269,49.9267674 C19.5829898,49.9535177 19.4387218,49.9807628 19.2950331,50.0084972 L18.4399324,50.1807356 L17.5992184,50.36447 C17.3214321,50.427603 17.0461243,50.4926102 16.7733758,50.5594499 L15.9628893,50.7654248 C14.4913701,51.1529709 13.0997149,51.5946868 11.8013642,52.0836248 L11.1025071,52.3549596 L10.4226413,52.6354103 C4.61416756,55.1047611 1,58.5729322 1,62.3059774 C1,67.1158625 7,71.4860216 15.9628893,73.8465301 L16.7733758,74.0525049 C17.0461243,74.1193446 17.3214321,74.1843519 17.5992184,74.2474848 L18.4399324,74.4312192 L19.2950331,74.6034576 C19.4387218,74.6311921 19.5829898,74.6584371 19.7278269,74.6851874 L20.6035988,74.8397119 C20.8977455,74.8892136 21.1940881,74.9366949 21.4925457,74.982114 L22.3941827,75.1121431 C25.1176445,75.4834203 28.0058808,75.6842799 31,75.6842799 C33.9941192,75.6842799 36.8823555,75.4834203 39.6058173,75.1121431 L40.5074543,74.982114 C40.8059119,74.9366949 41.1022545,74.8892136 41.3964012,74.8397119 L42.2721731,74.6851874 C42.4170102,74.6584371 42.5612782,74.6311921 42.7049669,74.6034576 L43.5600676,74.4312192 L44.4007816,74.2474848 C44.6785679,74.1843519 44.9538757,74.1193446 45.2266242,74.0525049 L46.0371107,73.8465301 C55,71.4860216 61,67.1158625 61,62.3059774 C61,58.5729322 57.3858324,55.1047611 51.5773587,52.6354103 L50.8974929,52.3549596 L50.1986358,52.0836248 C48.9002851,51.5946868 47.5086299,51.1529709 46.0371107,50.7654248 L45.2266242,50.5594499 C44.9538757,50.4926102 44.6785679,50.427603 44.4007816,50.36447 L43.5600676,50.1807356 L42.7049669,50.0084972 C42.5612782,49.9807628 42.4170102,49.9535177 42.2721731,49.9267674 L41.3964012,49.7722429 C41.1022545,49.7227412 40.8059119,49.6752599 40.5074543,49.6298408 L39.6058173,49.4998117 C36.8823555,49.1285345 33.9941192,48.9276749 31,48.9276749 Z" id="Oval-Copy-2" fill="#10162F" fill-rule="nonzero"></path>
                    <path d="M0.627009465,38.3421399 L0.627009465,57.4098479 C0.627013549,58.613701 1.0793795,59.7736027 1.89442331,60.6595857 C8.25825094,67.5773036 17.9601098,71.0361625 31,71.0361625 C44.0394084,71.0361625 53.7481656,67.5775592 60.1262717,60.6603525 C60.9436408,59.7739086 61.3974422,58.6123062 61.3974422,57.4065388 L61.3974422,38.3421399 L61.3974422,38.3421399" id="Path-2-Copy" stroke="#10162F" fill="#66C4FF" stroke-linejoin="round"></path>
                    <ellipse id="Oval-Copy" fill="#F5FCFF" cx="31" cy="38.3421399" rx="31" ry="14.3783025"></ellipse>
                    <path d="M1.12700947,38.3421399 L1.12700947,57.4098462 C1.12700947,58.4883 1.53225865,59.5273787 2.26240135,60.3210711 C8.5215838,67.1250357 18.0895573,70.5361625 31,70.5361625 C43.9101201,70.5361625 53.4851667,67.1251917 59.7586867,60.321411 C60.4345856,59.5883929 60.8329717,58.6453414 60.8902624,57.6550119 L60.8974422,57.4065388 L60.8974422,38.3421399 L61.8974422,38.3421399 L61.8974422,57.4065388 C61.8974422,58.7379104 61.3963674,60.0205133 60.4938589,60.9992914 C54.0111644,68.0299267 44.1686966,71.5361625 31,71.5361625 C17.8306623,71.5361625 7.99491808,68.0295714 1.52644527,60.9981004 C0.686498421,60.0850468 0.195392206,58.9085238 0.133640808,57.6749769 L0.127009465,57.4098479 L0.127009465,38.3421399 L1.12700947,38.3421399 Z" id="Path-2-Copy" fill="#10162F" fill-rule="nonzero"></path>
                    <path d="M31,23.9638375 C32.5408745,23.9638375 34.0554915,24.0159803 35.5360964,24.1166691 L36.5180424,24.1909476 C37.1692004,24.2452086 37.8132995,24.3089011 38.449659,24.3817092 L39.3983083,24.4977187 C39.5554207,24.51818 39.7120281,24.5392011 39.8681199,24.5607771 L40.7983977,24.6968529 C40.9523843,24.7206289 41.105834,24.7449499 41.2587362,24.7698111 L42.1694935,24.9254203 L43.066599,25.0937557 C46.03363,25.6758211 48.7646197,26.4660433 51.1744678,27.4249516 L51.8877029,27.7176452 C58.1013404,30.3471098 62,34.1334538 62,38.3421399 C62,43.5037361 56.1360495,48.0300901 47.329477,50.5662423 L46.50829,50.7946565 C45.2642281,51.1286805 43.9654748,51.4237499 42.6197847,51.6762678 L41.7157895,51.8382698 C38.3762679,52.408873 34.766582,52.7204424 31,52.7204424 C27.233418,52.7204424 23.6237321,52.408873 20.2842105,51.8382698 L19.3802153,51.6762678 C18.0345252,51.4237499 16.7357719,51.1286805 15.49171,50.7946565 L14.670523,50.5662423 C5.86395049,48.0300901 0,43.5037361 0,38.3421399 C0,34.1334538 3.89865963,30.3471098 10.1122971,27.7176452 L10.8255322,27.4249516 C13.2353803,26.4660433 15.96637,25.6758211 18.933401,25.0937557 L19.8305065,24.9254203 L20.7412638,24.7698111 C20.894166,24.7449499 21.0476157,24.7206289 21.2016023,24.6968529 L22.1318801,24.5607771 C22.2879719,24.5392011 22.4445793,24.51818 22.6016917,24.4977187 L23.550341,24.3817092 C24.1867005,24.3089011 24.8307996,24.2452086 25.4819576,24.1909476 L26.4639036,24.1166691 C27.9445085,24.0159803 29.4591255,23.9638375 31,23.9638375 Z M31,24.9638375 C28.8375806,24.9638375 26.7303902,25.0686068 24.7006142,25.2666776 L23.7693722,25.3646781 C23.1523164,25.4343727 22.542913,25.5127335 21.9418082,25.5994265 L21.0464557,25.7356734 C20.8982945,25.7594088 20.7506722,25.7836546 20.6035988,25.8084054 L19.7278269,25.9629299 C19.5829898,25.9896803 19.4387218,26.0169253 19.2950331,26.0446598 L18.4399324,26.2168981 L17.5992184,26.4006325 C17.3214321,26.4637655 17.0461243,26.5287727 16.7733758,26.5956124 L15.9628893,26.8015873 C7,29.1620958 1,33.5322548 1,38.3421399 C1,42.2187638 4.89752686,45.8097469 11.1025071,48.2931577 L11.8013642,48.5644926 C13.5718424,49.2312262 15.5158207,49.8101501 17.5992184,50.2836474 L18.4399324,50.4673818 L19.2950331,50.6396201 C19.5824106,50.6950891 19.872105,50.7486002 20.1640357,50.8001119 L21.0464557,50.9486065 C21.1946168,50.9723419 21.3433169,50.995567 21.4925457,51.0182765 L22.3941827,51.1483056 C24.5124307,51.4370768 26.7303572,51.6227558 29.0202531,51.6910195 L30.0059626,51.7130449 C30.3359474,51.7179627 30.6673201,51.7204424 31,51.7204424 C31.3326799,51.7204424 31.6640526,51.7179627 31.9940374,51.7130449 L32.9797469,51.6910195 C35.2696428,51.6227558 37.4875693,51.4370768 39.6058173,51.1483056 L40.5074543,51.0182765 C40.6566831,50.995567 40.8053832,50.9723419 40.9535443,50.9486065 L41.8359643,50.8001119 C42.127895,50.7486002 42.4175894,50.6950891 42.7049669,50.6396201 L43.5600676,50.4673818 L44.4007816,50.2836474 C46.4841793,49.8101501 48.4281576,49.2312262 50.1986358,48.5644926 L50.8974929,48.2931577 C57.1024731,45.8097469 61,42.2187638 61,38.3421399 C61,33.5322548 55,29.1620958 46.0371107,26.8015873 L45.2266242,26.5956124 C44.9538757,26.5287727 44.6785679,26.4637655 44.4007816,26.4006325 L43.5600676,26.2168981 L42.7049669,26.0446598 C42.5612782,26.0169253 42.4170102,25.9896803 42.2721731,25.9629299 L41.3964012,25.8084054 C41.2493278,25.7836546 41.1017055,25.7594088 40.9535443,25.7356734 L40.0581918,25.5994265 C39.457087,25.5127335 38.8476836,25.4343727 38.2306278,25.3646781 L37.2993858,25.2666776 C35.2696098,25.0686068 33.1624194,24.9638375 31,24.9638375 Z" id="Oval-Copy" fill="#10162F" fill-rule="nonzero"></path>
                    <path d="M0.627009465,14.3783025 L0.627009465,33.4460104 C0.627013549,34.6498635 1.0793795,35.8097652 1.89442331,36.6957482 C8.25825094,43.6134661 17.9601098,47.0723251 31,47.0723251 C44.0394084,47.0723251 53.7481656,43.6137217 60.1262717,36.696515 C60.9436408,35.8100711 61.3974422,34.6484688 61.3974422,33.4427013 L61.3974422,14.3783025 L61.3974422,14.3783025" id="Path-2" stroke="#10162F" fill="#66C4FF" stroke-linejoin="round"></path>
                    <ellipse id="Oval" fill="#F5FCFF" cx="31" cy="14.3783025" rx="31" ry="14.3783025"></ellipse>
                    <path d="M1.12700947,14.3783025 L1.12700947,33.4460087 C1.12700947,34.5244625 1.53225865,35.5635413 2.26240135,36.3572336 C8.5215838,43.1611983 18.0895573,46.5723251 31,46.5723251 C43.9101201,46.5723251 53.4851667,43.1613542 59.7586867,36.3575736 C60.4345856,35.6245554 60.8329717,34.6815039 60.8902624,33.6911745 L60.8974422,33.4427013 L60.8974422,14.3783025 L61.8974422,14.3783025 L61.8974422,33.4427013 C61.8974422,34.774073 61.3963674,36.0566758 60.4938589,37.035454 C54.0111644,44.0660893 44.1686966,47.5723251 31,47.5723251 C17.8306623,47.5723251 7.99491808,44.065734 1.52644527,37.0342629 C0.686498421,36.1212093 0.195392206,34.9446863 0.133640808,33.7111395 L0.127009465,33.4460104 L0.127009465,14.3783025 L1.12700947,14.3783025 Z" id="Path-2" fill="#10162F" fill-rule="nonzero"></path>
                    <path d="M31,0 C32.1984579,0 33.3810317,0.0315431879 34.5440727,0.0929372521 L35.5360964,0.152831683 C36.5231663,0.219957592 37.4951198,0.308659519 38.449659,0.417871752 L39.3983083,0.533881283 C39.7125331,0.574803736 40.0247379,0.617965641 40.3348376,0.663327527 L41.2587362,0.805973658 L42.1694935,0.961582852 L43.066599,1.12991828 C54.1929653,3.31266339 62,8.42261459 62,14.3783025 C62,21.8427646 49.736363,27.978706 34.0444413,28.6881469 L33.0382585,28.7260213 C32.3644795,28.7463051 31.6848331,28.756605 31,28.756605 C30.3151669,28.756605 29.6355205,28.7463051 28.9617415,28.7260213 L27.9555587,28.6881469 C12.263637,27.978706 0,21.8427646 0,14.3783025 C0,8.42261459 7.80703468,3.31266339 18.933401,1.12991828 L19.8305065,0.961582852 L20.7412638,0.805973658 L21.6651624,0.663327527 C21.9752621,0.617965641 22.2874669,0.574803736 22.6016917,0.533881283 L23.550341,0.417871752 C24.5048802,0.308659519 25.4768337,0.219957592 26.4639036,0.152831683 L27.4559273,0.0929372521 C28.4528196,0.0403137685 29.4640625,0.00962154096 30.4873583,0.00192628173 L31,0 Z M31,1 C29.3366004,1 27.7058808,1.06199369 26.117939,1.18076128 L25.1703881,1.25879294 C25.0133455,1.27291977 24.8567508,1.2876039 24.7006142,1.30284012 L23.7693722,1.40084059 C23.4608443,1.4356879 23.1542295,1.47270176 22.8496086,1.51184042 L21.9418082,1.63558906 L21.0464557,1.77183596 C20.3056498,1.89051304 19.5783154,2.02194815 18.8657147,2.16548882 L18.0177468,2.34350652 C17.5973797,2.43537894 17.1824985,2.5315154 16.7733758,2.63177498 L15.9628893,2.83774984 C15.4277914,2.97867571 14.9032541,3.12676453 14.3899235,3.28168221 L13.6284135,3.51913861 C12.3735081,3.92329618 11.1906648,4.36909021 10.0899816,4.85130087 L9.43951178,5.14495551 C9.33277027,5.19461237 9.22687055,5.24462295 9.12182273,5.29498203 L8.50183935,5.60127688 C3.82824651,7.98095974 1,11.0759933 1,14.3783025 C1,18.613873 5.6527061,22.5084574 12.8841985,24.9900172 L13.6284135,25.2374663 C13.8793946,25.3182979 14.1332582,25.3974639 14.3899235,25.4749228 L15.1682437,25.7021359 C15.8237134,25.8871425 16.4961889,26.061218 17.1844079,26.22371 L18.0177468,26.4130984 L18.8657147,26.5911161 L19.7278269,26.7575125 C20.0175012,26.8110132 20.3094521,26.8625353 20.6035988,26.912037 L21.4925457,27.0544391 C24.4771214,27.5086302 27.6732009,27.756605 31,27.756605 C34.3267991,27.756605 37.5228786,27.5086302 40.5074543,27.0544391 L41.3964012,26.912037 C41.6905479,26.8625353 41.9824988,26.8110132 42.2721731,26.7575125 L43.1342853,26.5911161 L43.9822532,26.4130984 L44.8155921,26.22371 C45.5038111,26.061218 46.1762866,25.8871425 46.8317563,25.7021359 L47.6100765,25.4749228 C47.8667418,25.3974639 48.1206054,25.3182979 48.3715865,25.2374663 L49.1158015,24.9900172 C56.3472939,22.5084574 61,18.613873 61,14.3783025 C61,11.0759933 58.1717535,7.98095974 53.4981607,5.60127688 L52.8781773,5.29498203 C52.7731294,5.24462295 52.6672297,5.19461237 52.5604882,5.14495551 L51.9100184,4.85130087 C50.8093352,4.36909021 49.6264919,3.92329618 48.3715865,3.51913861 L47.6100765,3.28168221 C47.0967459,3.12676453 46.5722086,2.97867571 46.0371107,2.83774984 L45.2266242,2.63177498 C44.8175015,2.5315154 44.4026203,2.43537894 43.9822532,2.34350652 L43.1342853,2.16548882 C42.4216846,2.02194815 41.6943502,1.89051304 40.9535443,1.77183596 L40.0581918,1.63558906 L39.1503914,1.51184042 C38.8457705,1.47270176 38.5391557,1.4356879 38.2306278,1.40084059 L37.2993858,1.30284012 C37.1432492,1.2876039 36.9866545,1.27291977 36.8296119,1.25879294 L35.882061,1.18076128 C34.4529134,1.07387045 32.9891157,1.01296648 31.4980294,1.00185459 L31,1 Z" id="Oval" fill="#10162F" fill-rule="nonzero"></path>
                </g>
                <rect id="Rectangle" fill="#10162F" x="92" y="58" width="68" height="34"></rect>
                <rect id="Rectangle" fill="#FFFFFF" x="123" y="66" width="29" height="2" rx="1"></rect>
                <rect id="Rectangle" fill="#FFFFFF" x="100" y="66" width="20" height="18"></rect>
                <rect id="Rectangle-Copy" fill="#FFFFFF" x="123" y="70" width="29" height="2" rx="1"></rect>
                <rect id="Rectangle-Copy-2" fill="#FFFFFF" x="123" y="74" width="29" height="2" rx="1"></rect>
                <rect id="Rectangle-Copy-3" fill="#FFFFFF" x="123" y="78" width="29" height="2" rx="1"></rect>
                <rect id="Rectangle-Copy-4" fill="#FFFFFF" x="123" y="82" width="29" height="2" rx="1"></rect>
            </g>
        </g>
        <path d="M640,0 L640,310 L0,310 L0,0 L640,0 Z M639,1 L1,1 L1,309 L639,309 L639,1 Z" id="Rectangle" fill="#10162F" fill-rule="nonzero"></path>
    </g>
</svg>