<?xml version="1.0" encoding="UTF-8"?>
<svg width="640px" height="317px" viewBox="0 0 640 317" version="1.1" xmlns="http://www.w3.org/2000/svg" xmlns:xlink="http://www.w3.org/1999/xlink">
    <title>rdbms table</title>
    <g id="rdbms-table" stroke="none" stroke-width="1" fill="none" fill-rule="evenodd">
        <rect fill="#F5FCFF" x="0" y="0" width="640" height="317"></rect>
        <g id="Group-27" transform="translate(45.500000, 22.175000)">
            <polygon id="Fill-1" fill="#FFFFFF" points="0.5 54.9 179.76832 54.9 179.76832 0.5 0.5 0.5"></polygon>
            <path d="M180.26832,0 L0,0 L0,55.4 L180.26832,55.4 L180.26832,0 Z M179.268,1 L179.268,54.4 L1,54.4 L1,1 L179.268,1 Z" id="Stroke-2" fill="#10162F" fill-rule="nonzero"></path>
            <polygon id="Fill-4" fill="#FFFFFF" points="179.76832 54.9 364.015755 54.9 364.015755 0.5 179.76832 0.5"></polygon>
            <polygon id="Fill-4-Copy" fill="#FFFFFF" points="364.252566 54.9 548.5 54.9 548.5 0.5 364.252566 0.5"></polygon>
            <path d="M364.515755,0 L179.26832,0 L179.26832,55.4 L364.515755,55.4 L364.515755,0 Z M363.515,1 L363.515,54.4 L180.268,54.4 L180.268,1 L363.515,1 Z" id="Stroke-5" fill="#10162F" fill-rule="nonzero"></path>
            <path d="M549,0 L363.752566,0 L363.752566,55.4 L549,55.4 L549,0 Z M547.999,1 L547.999,54.4 L364.752,54.4 L364.752,1 L547.999,1 Z" id="Stroke-5-Copy" fill="#10162F" fill-rule="nonzero"></path>
            <polygon id="Fill-7" fill="#FFFFFF" points="0.5 109.3 179.76832 109.3 179.76832 54.9 0.5 54.9"></polygon>
            <path d="M180.26832,54.4 L0,54.4 L0,109.8 L180.26832,109.8 L180.26832,54.4 Z M179.268,55.4 L179.268,108.8 L1,108.8 L1,55.4 L179.268,55.4 Z" id="Stroke-8" fill="#10162F" fill-rule="nonzero"></path>
            <polygon id="Fill-10" fill="#FFFFFF" points="179.76832 109.3 364.015755 109.3 364.015755 54.9 179.76832 54.9"></polygon>
            <polygon id="Fill-10-Copy" fill="#FFFFFF" points="364.252566 109.3 548.5 109.3 548.5 54.9 364.252566 54.9"></polygon>
            <path d="M364.515755,54.4 L179.26832,54.4 L179.26832,109.8 L364.515755,109.8 L364.515755,54.4 Z M363.515,55.4 L363.515,108.8 L180.268,108.8 L180.268,55.4 L363.515,55.4 Z" id="Stroke-11" fill="#10162F" fill-rule="nonzero"></path>
            <path d="M549,54.4 L363.752566,54.4 L363.752566,109.8 L549,109.8 L549,54.4 Z M547.999,55.4 L547.999,108.8 L364.752,108.8 L364.752,55.4 L547.999,55.4 Z" id="Stroke-11-Copy" fill="#10162F" fill-rule="nonzero"></path>
            <polygon id="Fill-13" fill="#FFFFFF" points="179.76832 163.7 364.015755 163.7 364.015755 109.3 179.76832 109.3"></polygon>
            <polygon id="Fill-13-Copy" fill="#FFFFFF" points="364.252566 163.7 548.5 163.7 548.5 109.3 364.252566 109.3"></polygon>
            <path d="M364.515755,108.8 L179.26832,108.8 L179.26832,164.2 L364.515755,164.2 L364.515755,108.8 Z M363.515,109.8 L363.515,163.2 L180.268,163.2 L180.268,109.8 L363.515,109.8 Z" id="Stroke-14" fill="#10162F" fill-rule="nonzero"></path>
            <path d="M549,108.8 L363.752566,108.8 L363.752566,164.2 L549,164.2 L549,108.8 Z M547.999,109.8 L547.999,163.2 L364.752,163.2 L364.752,109.8 L547.999,109.8 Z" id="Stroke-14-Copy" fill="#10162F" fill-rule="nonzero"></path>
            <polygon id="Fill-16" fill="#FFFFFF" points="0.5 163.7 179.76832 163.7 179.76832 109.3 0.5 109.3"></polygon>
            <path d="M180.26832,108.8 L0,108.8 L0,164.2 L180.26832,164.2 L180.26832,108.8 Z M179.268,109.8 L179.268,163.2 L1,163.2 L1,109.8 L179.268,109.8 Z" id="Stroke-17" fill="#10162F" fill-rule="nonzero"></path>
            <polygon id="Fill-19" fill="#FFFFFF" points="179.768973 218.1 364.015755 218.1 364.015755 163.7 179.768973 163.7"></polygon>
            <polygon id="Fill-19-Copy-2" fill="#FFFFFF" points="179.768973 272.1 364.015755 272.1 364.015755 217.7 179.768973 217.7"></polygon>
            <polygon id="Fill-19-Copy" fill="#FFFFFF" points="364.253218 218.1 548.5 218.1 548.5 163.7 364.253218 163.7"></polygon>
            <polygon id="Fill-19-Copy-3" fill="#FFFFFF" points="364.253218 272.1 548.5 272.1 548.5 217.7 364.253218 217.7"></polygon>
            <path d="M364.515755,163.2 L179.26832,163.2 L179.26832,218.6 L364.515755,218.6 L364.515755,163.2 Z M363.515,164.2 L363.515,217.6 L180.268,217.6 L180.268,164.2 L363.515,164.2 Z" id="Stroke-20" fill="#10162F" fill-rule="nonzero"></path>
            <path d="M364.515755,217.325 L179.26832,217.325 L179.26832,272.725 L364.515755,272.725 L364.515755,217.325 Z M363.515,218.324 L363.515,271.724 L180.268,271.724 L180.268,218.324 L363.515,218.324 Z" id="Stroke-20-Copy-2" fill="#10162F" fill-rule="nonzero"></path>
            <path d="M549,163.2 L363.752566,163.2 L363.752566,218.6 L549,218.6 L549,163.2 Z M547.999,164.2 L547.999,217.6 L364.752,217.6 L364.752,164.2 L547.999,164.2 Z" id="Stroke-20-Copy" fill="#10162F" fill-rule="nonzero"></path>
            <path d="M549,217.325 L363.752566,217.325 L363.752566,272.725 L549,272.725 L549,217.325 Z M547.999,218.324 L547.999,271.724 L364.752,271.724 L364.752,218.324 L547.999,218.324 Z" id="Stroke-20-Copy-3" fill="#10162F" fill-rule="nonzero"></path>
            <polygon id="Fill-22" fill="#FFFFFF" points="0.5 218.1 179.76832 218.1 179.76832 163.7 0.5 163.7"></polygon>
            <polygon id="Fill-22-Copy" fill="#FFFFFF" points="0.5 272.1 179.76832 272.1 179.76832 217.7 0.5 217.7"></polygon>
            <path d="M180.26832,163.2 L0,163.2 L0,218.6 L180.26832,218.6 L180.26832,163.2 Z M179.268,164.2 L179.268,217.6 L1,217.6 L1,164.2 L179.268,164.2 Z" id="Stroke-23" fill="#10162F" fill-rule="nonzero"></path>
            <path d="M180.26832,217.325 L0,217.325 L0,272.725 L180.26832,272.725 L180.26832,217.325 Z M179.268,218.324 L179.268,271.724 L1,271.724 L1,218.324 L179.268,218.324 Z" id="Stroke-23-Copy" fill="#10162F" fill-rule="nonzero"></path>
            <g id="NAME" transform="translate(78.240000, 21.250000)" fill="#10162F" fill-rule="nonzero">
                <polygon id="N" points="4.98 7.25 4.98 0 3.48 0 3.48 5 1.88 0 0 0 0 7.25 1.5 7.25 1.5 2.24 3.09 7.25"></polygon>
                <path d="M6.15,7.25 L7.75,7.25 L8.08,5.74 L9.78,5.74 L10.11,7.25 L11.75,7.25 L9.88,0 L8.01,0 L6.15,7.25 Z M8.94,1.91 L9.52,4.57 L8.34,4.57 L8.94,1.91 Z" id="A"></path>
                <polygon id="M" points="15.41 3.07 14.92 0 12.76 0 12.76 7.25 14.23 7.25 14.23 3.95 14.2 1.23 14.27 1.23 14.88 4.92 15.94 4.92 16.56 1.23 16.62 1.23 16.59 3.95 16.59 7.25 18.06 7.25 18.06 0 15.9 0"></polygon>
                <polygon id="E" points="19.71 7.25 24.1 7.25 24.1 5.96 21.21 5.96 21.21 4.19 23.9 4.19 23.9 2.9 21.21 2.9 21.21 1.29 24.1 1.29 24.1 0 19.71 0"></polygon>
            </g>
            <g id="COUNTRY" transform="translate(434.010000, 21.120000)" fill="#10162F" fill-rule="nonzero">
                <path d="M3.93,4.86 C3.86,5.94 3.44,6.33 2.79,6.33 C1.97,6.33 1.59,5.6 1.59,3.75 C1.59,1.94 1.99,1.18 2.79,1.18 C3.51,1.18 3.81,1.65 3.89,2.64 L5.36,2.64 C5.22,1.05 4.45,0 2.85,0 C0.96,0 0,1.41 0,3.75 C0,6.1 0.91,7.51 2.8,7.51 C4.42,7.51 5.24,6.55 5.42,4.86 L3.93,4.86 Z" id="C"></path>
                <path d="M7.93,3.75 C7.93,2.22 8.26,1.18 9.18,1.18 C10.11,1.18 10.43,2.22 10.43,3.75 C10.43,5.28 10.11,6.33 9.18,6.33 C8.26,6.33 7.93,5.28 7.93,3.75 Z M6.34,3.75 C6.34,6 7.22,7.51 9.18,7.51 C11.14,7.51 12.02,6 12.02,3.75 C12.02,1.5 11.14,0 9.18,0 C7.22,0 6.34,1.5 6.34,3.75 Z" id="O"></path>
                <path d="M13.1,0.13 L13.1,4.28 C13.1,6.67 13.74,7.51 15.66,7.51 C17.65,7.51 18.18,6.45 18.18,4.22 L18.18,0.13 L16.68,0.13 L16.68,4.53 C16.68,5.6 16.48,6.28 15.66,6.28 C14.82,6.28 14.6,5.69 14.6,4.64 L14.6,0.13 L13.1,0.13 Z" id="U"></path>
                <polygon id="N" points="24.59 7.38 24.59 0.13 23.09 0.13 23.09 5.13 21.49 0.13 19.61 0.13 19.61 7.38 21.11 7.38 21.11 2.37 22.7 7.38"></polygon>
                <polygon id="T" points="27.81 7.38 29.31 7.38 29.31 1.42 31.36 1.42 31.36 0.13 25.76 0.13 25.76 1.42 27.81 1.42"></polygon>
                <path d="M36.09,7.38 L37.74,7.38 L36.12,4.12 C36.88,3.84 37.42,3.32 37.42,2.28 C37.42,0.48 36.17,0.13 34.52,0.13 L32.59,0.13 L32.59,7.38 L34.09,7.38 L34.09,4.44 L34.52,4.44 L34.66,4.44 L36.09,7.38 Z M34.57,1.35 C35.28,1.35 35.83,1.53 35.83,2.31 C35.83,3.09 35.28,3.26 34.57,3.26 L34.09,3.26 L34.09,1.35 L34.57,1.35 Z" id="R"></path>
                <polygon id="Y" points="41.48 3.13 40.19 0.13 38.48 0.13 40.73 4.78 40.73 7.38 42.23 7.38 42.23 4.78 44.48 0.13 42.77 0.13"></polygon>
            </g>
            <g id="AGE" transform="translate(261.930000, 21.120000)" fill="#10162F" fill-rule="nonzero">
                <path d="M0,7.38 L1.6,7.38 L1.93,5.87 L3.63,5.87 L3.96,7.38 L5.6,7.38 L3.73,0.13 L1.86,0.13 L0,7.38 Z M2.79,2.04 L3.37,4.7 L2.19,4.7 L2.79,2.04 Z" id="A"></path>
                <path d="M11.99,2.55 C11.87,1.01 10.94,0 9.37,0 C7.45,0 6.45,1.41 6.45,3.75 C6.45,6.1 7.42,7.51 9.18,7.51 C9.95,7.51 10.48,7.2 10.82,6.48 L10.87,7.38 L12.02,7.38 L12.02,3.5 L9.19,3.5 L9.19,4.68 L10.51,4.68 L10.51,4.85 C10.51,5.77 10.01,6.33 9.32,6.33 C8.48,6.33 8.04,5.6 8.04,3.75 C8.04,1.94 8.48,1.18 9.32,1.18 C10.02,1.18 10.45,1.62 10.51,2.55 L11.99,2.55 Z" id="G"></path>
                <polygon id="E" points="13.56 7.38 17.95 7.38 17.95 6.09 15.06 6.09 15.06 4.32 17.75 4.32 17.75 3.03 15.06 3.03 15.06 1.42 17.95 1.42 17.95 0.13 13.56 0.13"></polygon>
            </g>
            <g id="Natalia" transform="translate(68.380000, 79.250000)" fill="#10162F" fill-rule="nonzero">
                <polygon id="N" points="4.69 7.25 4.69 0 3.74 0 3.74 6.17 1.42 0 0 0 0 7.25 0.95 7.25 0.95 1.06 3.27 7.25"></polygon>
                <path d="M8.27,7.38 C9.27,7.38 9.83,7.02 10.16,6.46 L10.17,7.25 L11.05,7.25 C11.02,6.89 10.97,6.12 10.98,5.22 L10.99,3.91 C11.01,2.42 10.37,1.76 8.88,1.76 C7.76,1.76 6.74,2.41 6.65,3.57 L7.59,3.57 C7.65,2.91 8.04,2.5 8.87,2.5 C9.57,2.5 10.08,2.78 10.08,3.71 L10.08,3.94 C7.88,4.18 6.52,4.57 6.52,5.85 C6.52,6.82 7.3,7.38 8.27,7.38 Z M10.15,4.82 C10.15,6.25 9.35,6.64 8.53,6.64 C7.88,6.64 7.51,6.34 7.51,5.83 C7.51,5.06 8.51,4.83 10.15,4.67 L10.15,4.82 Z" id="a"></path>
                <path d="M14.01,1.87 L12.48,1.87 L12.48,2.66 L14.01,2.66 L14.01,5.9 C14.01,7.02 14.29,7.25 15.27,7.25 L17.13,7.25 L17.13,6.46 L15.47,6.46 C14.96,6.46 14.93,6.32 14.93,5.77 L14.93,2.66 L17.13,2.66 L17.13,1.87 L14.93,1.87 L14.93,0.52 L14.01,0.52 L14.01,1.87 Z" id="t"></path>
                <path d="M21.19,7.38 C22.19,7.38 22.75,7.02 23.08,6.46 L23.09,7.25 L23.97,7.25 C23.94,6.89 23.89,6.12 23.9,5.22 L23.91,3.91 C23.93,2.42 23.29,1.76 21.8,1.76 C20.68,1.76 19.66,2.41 19.57,3.57 L20.51,3.57 C20.57,2.91 20.96,2.5 21.79,2.5 C22.49,2.5 23,2.78 23,3.71 L23,3.94 C20.8,4.18 19.44,4.57 19.44,5.85 C19.44,6.82 20.22,7.38 21.19,7.38 Z M23.07,4.82 C23.07,6.25 22.27,6.64 21.45,6.64 C20.8,6.64 20.43,6.34 20.43,5.83 C20.43,5.06 21.43,4.83 23.07,4.67 L23.07,4.82 Z" id="a"></path>
                <polygon id="l" points="26.24 0 26.24 0.78 27.76 0.78 27.76 6.46 26.24 6.46 26.24 7.25 30.21 7.25 30.21 6.46 28.68 6.46 28.68 0"></polygon>
                <path d="M34.28,0 L34.28,1.09 L35.2,1.09 L35.2,0 L34.28,0 Z M32.76,1.87 L32.76,2.66 L34.28,2.66 L34.28,6.46 L32.76,6.46 L32.76,7.25 L36.73,7.25 L36.73,6.46 L35.2,6.46 L35.2,1.87 L32.76,1.87 Z" id="i"></path>
                <path d="M40.57,7.38 C41.57,7.38 42.13,7.02 42.46,6.46 L42.47,7.25 L43.35,7.25 C43.32,6.89 43.27,6.12 43.28,5.22 L43.29,3.91 C43.31,2.42 42.67,1.76 41.18,1.76 C40.06,1.76 39.04,2.41 38.95,3.57 L39.89,3.57 C39.95,2.91 40.34,2.5 41.17,2.5 C41.87,2.5 42.38,2.78 42.38,3.71 L42.38,3.94 C40.18,4.18 38.82,4.57 38.82,5.85 C38.82,6.82 39.6,7.38 40.57,7.38 Z M42.45,4.82 C42.45,6.25 41.65,6.64 40.83,6.64 C40.18,6.64 39.81,6.34 39.81,5.83 C39.81,5.06 40.81,4.83 42.45,4.67 L42.45,4.82 Z" id="a"></path>
            </g>
            <g id="Iceland" transform="translate(434.420000, 79.250000)" fill="#10162F" fill-rule="nonzero">
                <polygon id="I" points="0 0.9 1.83 0.9 1.83 6.35 0 6.35 0 7.25 4.61 7.25 4.61 6.35 2.78 6.35 2.78 0.9 4.61 0.9 4.61 0 0 0"></polygon>
                <path d="M8.87,1.78 C7.33,1.78 6.4,2.98 6.4,4.58 C6.4,6.22 7.29,7.38 8.78,7.38 C9.98,7.38 10.94,6.59 11.09,5.52 L10.14,5.52 C10.02,6.1 9.56,6.63 8.83,6.63 C8.03,6.63 7.37,5.95 7.37,4.58 C7.37,3.23 8.03,2.54 8.83,2.54 C9.49,2.54 9.98,3 10.1,3.66 L11.03,3.66 C10.95,2.69 10.12,1.78 8.87,1.78 Z" id="c"></path>
                <path d="M15.26,7.38 C16.52,7.38 17.36,6.66 17.58,5.64 L16.63,5.64 C16.44,6.25 16.04,6.63 15.24,6.63 C14.39,6.63 13.79,5.92 13.79,4.84 L17.66,4.84 C17.73,2.92 16.83,1.77 15.26,1.77 C13.84,1.77 12.82,2.85 12.82,4.58 C12.82,6.17 13.63,7.38 15.26,7.38 Z M15.26,2.53 C16.2,2.53 16.69,3.2 16.68,4.08 L13.8,4.08 C13.84,3.04 14.39,2.53 15.26,2.53 Z" id="e"></path>
                <polygon id="l" points="19.74 0 19.74 0.78 21.26 0.78 21.26 6.46 19.74 6.46 19.74 7.25 23.71 7.25 23.71 6.46 22.18 6.46 22.18 0"></polygon>
                <path d="M27.61,7.38 C28.61,7.38 29.17,7.02 29.5,6.46 L29.51,7.25 L30.39,7.25 C30.36,6.89 30.31,6.12 30.32,5.22 L30.33,3.91 C30.35,2.42 29.71,1.76 28.22,1.76 C27.1,1.76 26.08,2.41 25.99,3.57 L26.93,3.57 C26.99,2.91 27.38,2.5 28.21,2.5 C28.91,2.5 29.42,2.78 29.42,3.71 L29.42,3.94 C27.22,4.18 25.86,4.57 25.86,5.85 C25.86,6.82 26.64,7.38 27.61,7.38 Z M29.49,4.82 C29.49,6.25 28.69,6.64 27.87,6.64 C27.22,6.64 26.85,6.34 26.85,5.83 C26.85,5.06 27.85,4.83 29.49,4.67 L29.49,4.82 Z" id="a"></path>
                <path d="M33.44,1.87 L32.52,1.87 L32.52,7.25 L33.44,7.25 L33.44,4.33 C33.44,3.18 33.89,2.56 34.72,2.56 C35.72,2.56 35.79,3.28 35.79,4.15 L35.79,7.25 L36.71,7.25 L36.71,3.83 C36.71,2.64 36.32,1.78 35.02,1.78 C34.17,1.78 33.71,2.17 33.44,2.63 L33.44,1.87 Z" id="n"></path>
                <path d="M42.28,2.68 C41.98,2.16 41.5,1.78 40.69,1.78 C39.45,1.78 38.52,2.81 38.52,4.58 C38.52,6.36 39.45,7.38 40.69,7.38 C41.5,7.38 41.98,7 42.28,6.49 L42.29,7.25 L43.2,7.25 L43.2,0 L42.28,0 L42.28,2.68 Z M42.32,4.58 C42.32,5.99 41.65,6.62 40.88,6.62 C39.96,6.62 39.49,5.86 39.49,4.58 C39.49,3.3 39.96,2.55 40.88,2.55 C41.65,2.55 42.32,3.16 42.32,4.58 Z" id="d"></path>
            </g>
            <g id="11" transform="translate(266.600000, 79.250000)" fill="#10162F" fill-rule="nonzero">
                <path d="M2.17,0 C1.8,0.79 1.21,0.92 0,0.95 L0,1.58 L1.85,1.58 L1.85,6.46 L0,6.46 L0,7.25 L4.29,7.25 L4.29,6.46 L2.77,6.46 L2.77,0 L2.17,0 Z" id="1"></path>
                <path d="M8.63,0 C8.26,0.79 7.67,0.92 6.46,0.95 L6.46,1.58 L8.31,1.58 L8.31,6.46 L6.46,6.46 L6.46,7.25 L10.75,7.25 L10.75,6.46 L9.23,6.46 L9.23,0 L8.63,0 Z" id="1"></path>
            </g>
            <g id="United-States" transform="translate(415.290000, 132.120000)" fill="#10162F" fill-rule="nonzero">
                <path d="M0,0.13 L0,4.43 C0,6.69 0.62,7.51 2.43,7.51 C4.32,7.51 4.88,6.47 4.88,4.35 L4.88,0.13 L3.93,0.13 L3.93,4.43 C3.93,5.86 3.68,6.63 2.43,6.63 C1.2,6.63 0.95,5.96 0.95,4.54 L0.95,0.13 L0,0.13 Z" id="U"></path>
                <path d="M7.73,2 L6.81,2 L6.81,7.38 L7.73,7.38 L7.73,4.46 C7.73,3.31 8.18,2.69 9.01,2.69 C10.01,2.69 10.08,3.41 10.08,4.28 L10.08,7.38 L11,7.38 L11,3.96 C11,2.77 10.61,1.91 9.31,1.91 C8.46,1.91 8,2.3 7.73,2.76 L7.73,2 Z" id="n"></path>
                <path d="M14.99,0.13 L14.99,1.22 L15.91,1.22 L15.91,0.13 L14.99,0.13 Z M13.47,2 L13.47,2.79 L14.99,2.79 L14.99,6.59 L13.47,6.59 L13.47,7.38 L17.44,7.38 L17.44,6.59 L15.91,6.59 L15.91,2 L13.47,2 Z" id="i"></path>
                <path d="M20.56,2 L19.03,2 L19.03,2.79 L20.56,2.79 L20.56,6.03 C20.56,7.15 20.84,7.38 21.82,7.38 L23.68,7.38 L23.68,6.59 L22.02,6.59 C21.51,6.59 21.48,6.45 21.48,5.9 L21.48,2.79 L23.68,2.79 L23.68,2 L21.48,2 L21.48,0.65 L20.56,0.65 L20.56,2 Z" id="t"></path>
                <path d="M28.31,7.51 C29.57,7.51 30.41,6.79 30.63,5.77 L29.68,5.77 C29.49,6.38 29.09,6.76 28.29,6.76 C27.44,6.76 26.84,6.05 26.84,4.97 L30.71,4.97 C30.78,3.05 29.88,1.9 28.31,1.9 C26.89,1.9 25.87,2.98 25.87,4.71 C25.87,6.3 26.68,7.51 28.31,7.51 Z M28.31,2.66 C29.25,2.66 29.74,3.33 29.73,4.21 L26.85,4.21 C26.89,3.17 27.44,2.66 28.31,2.66 Z" id="e"></path>
                <path d="M35.95,2.81 C35.65,2.29 35.17,1.91 34.36,1.91 C33.12,1.91 32.19,2.94 32.19,4.71 C32.19,6.49 33.12,7.51 34.36,7.51 C35.17,7.51 35.65,7.13 35.95,6.62 L35.96,7.38 L36.87,7.38 L36.87,0.13 L35.95,0.13 L35.95,2.81 Z M35.99,4.71 C35.99,6.12 35.32,6.75 34.55,6.75 C33.63,6.75 33.16,5.99 33.16,4.71 C33.16,3.43 33.63,2.68 34.55,2.68 C35.32,2.68 35.99,3.29 35.99,4.71 Z" id="d"></path>
                <path d="M47.08,3.96 L47.87,4.15 C48.66,4.33 49.23,4.67 49.23,5.42 C49.23,6.25 48.49,6.63 47.77,6.63 C46.84,6.63 46.16,6.09 46.06,5.12 L45.12,5.12 C45.2,6.56 46.27,7.51 47.74,7.51 C49.14,7.51 50.19,6.7 50.19,5.35 C50.19,3.97 49.17,3.46 48,3.2 L47.28,3.04 C46.7,2.91 46.23,2.6 46.23,1.96 C46.23,1.21 46.92,0.88 47.58,0.88 C48.24,0.88 48.99,1.17 49.1,2.04 L50.04,2.04 C49.88,0.6 48.75,0 47.63,0 C46.33,0 45.25,0.74 45.25,1.99 C45.25,3.14 46.13,3.75 47.08,3.96 Z" id="S"></path>
                <path d="M52.86,2 L51.33,2 L51.33,2.79 L52.86,2.79 L52.86,6.03 C52.86,7.15 53.14,7.38 54.12,7.38 L55.98,7.38 L55.98,6.59 L54.32,6.59 C53.81,6.59 53.78,6.45 53.78,5.9 L53.78,2.79 L55.98,2.79 L55.98,2 L53.78,2 L53.78,0.65 L52.86,0.65 L52.86,2 Z" id="t"></path>
                <path d="M60.04,7.51 C61.04,7.51 61.6,7.15 61.93,6.59 L61.94,7.38 L62.82,7.38 C62.79,7.02 62.74,6.25 62.75,5.35 L62.76,4.04 C62.78,2.55 62.14,1.89 60.65,1.89 C59.53,1.89 58.51,2.54 58.42,3.7 L59.36,3.7 C59.42,3.04 59.81,2.63 60.64,2.63 C61.34,2.63 61.85,2.91 61.85,3.84 L61.85,4.07 C59.65,4.31 58.29,4.7 58.29,5.98 C58.29,6.95 59.07,7.51 60.04,7.51 Z M61.92,4.95 C61.92,6.38 61.12,6.77 60.3,6.77 C59.65,6.77 59.28,6.47 59.28,5.96 C59.28,5.19 60.28,4.96 61.92,4.8 L61.92,4.95 Z" id="a"></path>
                <path d="M65.78,2 L64.25,2 L64.25,2.79 L65.78,2.79 L65.78,6.03 C65.78,7.15 66.06,7.38 67.04,7.38 L68.9,7.38 L68.9,6.59 L67.24,6.59 C66.73,6.59 66.7,6.45 66.7,5.9 L66.7,2.79 L68.9,2.79 L68.9,2 L66.7,2 L66.7,0.65 L65.78,0.65 L65.78,2 Z" id="t"></path>
                <path d="M73.53,7.51 C74.79,7.51 75.63,6.79 75.85,5.77 L74.9,5.77 C74.71,6.38 74.31,6.76 73.51,6.76 C72.66,6.76 72.06,6.05 72.06,4.97 L75.93,4.97 C76,3.05 75.1,1.9 73.53,1.9 C72.11,1.9 71.09,2.98 71.09,4.71 C71.09,6.3 71.9,7.51 73.53,7.51 Z M73.53,2.66 C74.47,2.66 74.96,3.33 74.95,4.21 L72.07,4.21 C72.11,3.17 72.66,2.66 73.53,2.66 Z" id="e"></path>
                <path d="M82.03,3.47 C81.83,2.51 81.05,1.91 79.91,1.91 C79.01,1.91 77.88,2.36 77.88,3.4 C77.88,4.33 78.55,4.75 79.4,4.92 L80.07,5.05 C80.75,5.17 81.2,5.42 81.2,5.92 C81.2,6.55 80.57,6.75 80,6.75 C79.25,6.75 78.87,6.39 78.75,5.77 L77.78,5.77 C77.88,6.63 78.58,7.51 79.98,7.51 C81.15,7.51 82.13,6.95 82.13,5.81 C82.13,4.73 81.13,4.38 80.2,4.2 L79.6,4.08 C79.07,3.97 78.79,3.78 78.79,3.36 C78.79,2.88 79.33,2.67 79.87,2.67 C80.48,2.67 80.95,2.87 81.07,3.47 L82.03,3.47 Z" id="s"></path>
            </g>
            <g id="6" transform="translate(269.210000, 132.120000)" fill="#10162F" fill-rule="nonzero">
                <path d="M1.05,5.06 C1.05,4.09 1.66,3.38 2.56,3.38 C3.44,3.38 4.06,4.09 4.06,5.06 C4.06,6.04 3.43,6.72 2.55,6.72 C1.64,6.72 1.05,6.05 1.05,5.06 Z M2.69,0.78 C3.35,0.78 3.82,1.15 3.93,1.79 L4.92,1.79 C4.78,0.89 4.09,0 2.74,0 C0.75,0 0,2 0,4.04 C0,6.24 0.84,7.51 2.56,7.51 C4.04,7.51 5.04,6.35 5.04,5.02 C5.04,3.58 4.05,2.56 2.77,2.56 C1.85,2.56 1.26,2.99 0.95,3.55 C0.99,1.9 1.58,0.78 2.69,0.78 Z"></path>
            </g>
            <g id="Ireland" transform="translate(434.420000, 187.250000)" fill="#10162F" fill-rule="nonzero">
                <polygon id="I" points="0 0.9 1.83 0.9 1.83 6.35 0 6.35 0 7.25 4.61 7.25 4.61 6.35 2.78 6.35 2.78 0.9 4.61 0.9 4.61 0 0 0"></polygon>
                <path d="M6.4,1.87 L6.4,2.66 L7.93,2.66 L7.93,6.46 L6.41,6.46 L6.41,7.25 L10.69,7.25 L10.69,6.46 L8.85,6.46 L8.85,4.57 C8.85,3.39 9.25,2.71 10.28,2.71 L11.19,2.71 L11.19,1.87 L10.27,1.87 C9.61,1.87 9.09,2.23 8.83,2.83 L8.83,1.87 L6.4,1.87 Z" id="r"></path>
                <path d="M15.26,7.38 C16.52,7.38 17.36,6.66 17.58,5.64 L16.63,5.64 C16.44,6.25 16.04,6.63 15.24,6.63 C14.39,6.63 13.79,5.92 13.79,4.84 L17.66,4.84 C17.73,2.92 16.83,1.77 15.26,1.77 C13.84,1.77 12.82,2.85 12.82,4.58 C12.82,6.17 13.63,7.38 15.26,7.38 Z M15.26,2.53 C16.2,2.53 16.69,3.2 16.68,4.08 L13.8,4.08 C13.84,3.04 14.39,2.53 15.26,2.53 Z" id="e"></path>
                <polygon id="l" points="19.74 0 19.74 0.78 21.26 0.78 21.26 6.46 19.74 6.46 19.74 7.25 23.71 7.25 23.71 6.46 22.18 6.46 22.18 0"></polygon>
                <path d="M27.61,7.38 C28.61,7.38 29.17,7.02 29.5,6.46 L29.51,7.25 L30.39,7.25 C30.36,6.89 30.31,6.12 30.32,5.22 L30.33,3.91 C30.35,2.42 29.71,1.76 28.22,1.76 C27.1,1.76 26.08,2.41 25.99,3.57 L26.93,3.57 C26.99,2.91 27.38,2.5 28.21,2.5 C28.91,2.5 29.42,2.78 29.42,3.71 L29.42,3.94 C27.22,4.18 25.86,4.57 25.86,5.85 C25.86,6.82 26.64,7.38 27.61,7.38 Z M29.49,4.82 C29.49,6.25 28.69,6.64 27.87,6.64 C27.22,6.64 26.85,6.34 26.85,5.83 C26.85,5.06 27.85,4.83 29.49,4.67 L29.49,4.82 Z" id="a"></path>
                <path d="M33.44,1.87 L32.52,1.87 L32.52,7.25 L33.44,7.25 L33.44,4.33 C33.44,3.18 33.89,2.56 34.72,2.56 C35.72,2.56 35.79,3.28 35.79,4.15 L35.79,7.25 L36.71,7.25 L36.71,3.83 C36.71,2.64 36.32,1.78 35.02,1.78 C34.17,1.78 33.71,2.17 33.44,2.63 L33.44,1.87 Z" id="n"></path>
                <path d="M42.28,2.68 C41.98,2.16 41.5,1.78 40.69,1.78 C39.45,1.78 38.52,2.81 38.52,4.58 C38.52,6.36 39.45,7.38 40.69,7.38 C41.5,7.38 41.98,7 42.28,6.49 L42.29,7.25 L43.2,7.25 L43.2,0 L42.28,0 L42.28,2.68 Z M42.32,4.58 C42.32,5.99 41.65,6.62 40.88,6.62 C39.96,6.62 39.49,5.86 39.49,4.58 C39.49,3.3 39.96,2.55 40.88,2.55 C41.65,2.55 42.32,3.16 42.32,4.58 Z" id="d"></path>
            </g>
            <g id="Kenya" transform="translate(441.580000, 241.250000)" fill="#10162F" fill-rule="nonzero">
                <polygon id="K" points="0.95 0 0 0 0 7.25 0.95 7.25 0.95 4.79 1.85 3.63 3.85 7.25 4.94 7.25 2.47 2.83 4.66 0 3.54 0 0.95 3.47"></polygon>
                <path d="M8.64,7.38 C9.9,7.38 10.74,6.66 10.96,5.64 L10.01,5.64 C9.82,6.25 9.42,6.63 8.62,6.63 C7.77,6.63 7.17,5.92 7.17,4.84 L11.04,4.84 C11.11,2.92 10.21,1.77 8.64,1.77 C7.22,1.77 6.2,2.85 6.2,4.58 C6.2,6.17 7.01,7.38 8.64,7.38 Z M8.64,2.53 C9.58,2.53 10.07,3.2 10.06,4.08 L7.18,4.08 C7.22,3.04 7.77,2.53 8.64,2.53 Z" id="e"></path>
                <path d="M13.9,1.87 L12.98,1.87 L12.98,7.25 L13.9,7.25 L13.9,4.33 C13.9,3.18 14.35,2.56 15.18,2.56 C16.18,2.56 16.25,3.28 16.25,4.15 L16.25,7.25 L17.17,7.25 L17.17,3.83 C17.17,2.64 16.78,1.78 15.48,1.78 C14.63,1.78 14.17,2.17 13.9,2.63 L13.9,1.87 Z" id="n"></path>
                <path d="M20.13,9 C21.27,9 21.57,8.54 21.95,7.48 L23.94,1.87 L22.99,1.87 L21.56,6.02 L20.1,1.87 L19.09,1.87 L21.1,7.25 L21.06,7.37 C20.78,8.14 20.6,8.21 20.04,8.21 L19.07,8.21 L19.07,9 L20.13,9 Z" id="y"></path>
                <path d="M27.45,7.38 C28.45,7.38 29.01,7.02 29.34,6.46 L29.35,7.25 L30.23,7.25 C30.2,6.89 30.15,6.12 30.16,5.22 L30.17,3.91 C30.19,2.42 29.55,1.76 28.06,1.76 C26.94,1.76 25.92,2.41 25.83,3.57 L26.77,3.57 C26.83,2.91 27.22,2.5 28.05,2.5 C28.75,2.5 29.26,2.78 29.26,3.71 L29.26,3.94 C27.06,4.18 25.7,4.57 25.7,5.85 C25.7,6.82 26.48,7.38 27.45,7.38 Z M29.33,4.82 C29.33,6.25 28.53,6.64 27.71,6.64 C27.06,6.64 26.69,6.34 26.69,5.83 C26.69,5.06 27.69,4.83 29.33,4.67 L29.33,4.82 Z" id="a"></path>
            </g>
            <g id="14" transform="translate(266.600000, 187.250000)" fill="#10162F" fill-rule="nonzero">
                <path d="M2.17,0 C1.8,0.79 1.21,0.92 0,0.95 L0,1.58 L1.85,1.58 L1.85,6.46 L0,6.46 L0,7.25 L4.29,7.25 L4.29,6.46 L2.77,6.46 L2.77,0 L2.17,0 Z" id="1"></path>
                <path d="M9.21,1.24 L9.21,4.6 L6.75,4.6 L9.21,1.24 Z M11.34,4.6 L10.13,4.6 L10.13,0 L9.2,0 L5.79,4.6 L5.79,5.46 L9.21,5.46 L9.21,7.25 L10.13,7.25 L10.13,5.46 L11.34,5.46 L11.34,4.6 Z" id="4"></path>
            </g>
            <g id="8" transform="translate(269.160000, 241.120000)" fill="#10162F" fill-rule="nonzero">
                <path d="M2.57,0 C1.16,0 0.21,0.79 0.21,1.85 C0.21,2.43 0.48,3.13 1.17,3.51 C0.26,3.9 0,4.69 0,5.34 C0,6.7 1.15,7.51 2.57,7.51 C3.99,7.51 5.14,6.7 5.14,5.34 C5.14,4.69 4.87,3.9 3.97,3.51 C4.65,3.13 4.92,2.43 4.92,1.85 C4.92,0.79 3.98,0 2.57,0 Z M2.57,3.92 C3.54,3.92 4.16,4.5 4.16,5.34 C4.16,6.18 3.54,6.72 2.57,6.72 C1.6,6.72 0.97,6.18 0.97,5.34 C0.97,4.5 1.6,3.92 2.57,3.92 Z M4,1.94 C4,2.66 3.43,3.21 2.57,3.21 C1.71,3.21 1.14,2.66 1.14,1.94 C1.14,1.23 1.71,0.79 2.57,0.79 C3.43,0.79 4,1.2 4,1.94 Z"></path>
            </g>
            <g id="Ned" transform="translate(81.380000, 132.250000)" fill="#10162F" fill-rule="nonzero">
                <polygon id="N" points="4.69 7.25 4.69 0 3.74 0 3.74 6.17 1.42 0 0 0 0 7.25 0.95 7.25 0.95 1.06 3.27 7.25"></polygon>
                <path d="M8.84,7.38 C10.1,7.38 10.94,6.66 11.16,5.64 L10.21,5.64 C10.02,6.25 9.62,6.63 8.82,6.63 C7.97,6.63 7.37,5.92 7.37,4.84 L11.24,4.84 C11.31,2.92 10.41,1.77 8.84,1.77 C7.42,1.77 6.4,2.85 6.4,4.58 C6.4,6.17 7.21,7.38 8.84,7.38 Z M8.84,2.53 C9.78,2.53 10.27,3.2 10.26,4.08 L7.38,4.08 C7.42,3.04 7.97,2.53 8.84,2.53 Z" id="e"></path>
                <path d="M16.48,2.68 C16.18,2.16 15.7,1.78 14.89,1.78 C13.65,1.78 12.72,2.81 12.72,4.58 C12.72,6.36 13.65,7.38 14.89,7.38 C15.7,7.38 16.18,7 16.48,6.49 L16.49,7.25 L17.4,7.25 L17.4,0 L16.48,0 L16.48,2.68 Z M16.52,4.58 C16.52,5.99 15.85,6.62 15.08,6.62 C14.16,6.62 13.69,5.86 13.69,4.58 C13.69,3.3 14.16,2.55 15.08,2.55 C15.85,2.55 16.52,3.16 16.52,4.58 Z" id="d"></path>
            </g>
            <g id="Zenas" transform="translate(74.260000, 187.250000)" fill="#10162F" fill-rule="nonzero">
                <polygon id="Z" points="4.81 0 0.3 0 0.3 0.9 3.73 0.9 0 6.35 0 7.25 4.85 7.25 4.85 6.35 1.09 6.35 4.81 0.9"></polygon>
                <path d="M8.96,7.38 C10.22,7.38 11.06,6.66 11.28,5.64 L10.33,5.64 C10.14,6.25 9.74,6.63 8.94,6.63 C8.09,6.63 7.49,5.92 7.49,4.84 L11.36,4.84 C11.43,2.92 10.53,1.77 8.96,1.77 C7.54,1.77 6.52,2.85 6.52,4.58 C6.52,6.17 7.33,7.38 8.96,7.38 Z M8.96,2.53 C9.9,2.53 10.39,3.2 10.38,4.08 L7.5,4.08 C7.54,3.04 8.09,2.53 8.96,2.53 Z" id="e"></path>
                <path d="M14.22,1.87 L13.3,1.87 L13.3,7.25 L14.22,7.25 L14.22,4.33 C14.22,3.18 14.67,2.56 15.5,2.56 C16.5,2.56 16.57,3.28 16.57,4.15 L16.57,7.25 L17.49,7.25 L17.49,3.83 C17.49,2.64 17.1,1.78 15.8,1.78 C14.95,1.78 14.49,2.17 14.22,2.63 L14.22,1.87 Z" id="n"></path>
                <path d="M21.31,7.38 C22.31,7.38 22.87,7.02 23.2,6.46 L23.21,7.25 L24.09,7.25 C24.06,6.89 24.01,6.12 24.02,5.22 L24.03,3.91 C24.05,2.42 23.41,1.76 21.92,1.76 C20.8,1.76 19.78,2.41 19.69,3.57 L20.63,3.57 C20.69,2.91 21.08,2.5 21.91,2.5 C22.61,2.5 23.12,2.78 23.12,3.71 L23.12,3.94 C20.92,4.18 19.56,4.57 19.56,5.85 C19.56,6.82 20.34,7.38 21.31,7.38 Z M23.19,4.82 C23.19,6.25 22.39,6.64 21.57,6.64 C20.92,6.64 20.55,6.34 20.55,5.83 C20.55,5.06 21.55,4.83 23.19,4.67 L23.19,4.82 Z" id="a"></path>
                <path d="M30.38,3.34 C30.18,2.38 29.4,1.78 28.26,1.78 C27.36,1.78 26.23,2.23 26.23,3.27 C26.23,4.2 26.9,4.62 27.75,4.79 L28.42,4.92 C29.1,5.04 29.55,5.29 29.55,5.79 C29.55,6.42 28.92,6.62 28.35,6.62 C27.6,6.62 27.22,6.26 27.1,5.64 L26.13,5.64 C26.23,6.5 26.93,7.38 28.33,7.38 C29.5,7.38 30.48,6.82 30.48,5.68 C30.48,4.6 29.48,4.25 28.55,4.07 L27.95,3.95 C27.42,3.84 27.14,3.65 27.14,3.23 C27.14,2.75 27.68,2.54 28.22,2.54 C28.83,2.54 29.3,2.74 29.42,3.34 L30.38,3.34 Z" id="s"></path>
            </g>
            <g id="Laura" transform="translate(74.750000, 241.250000)" fill="#10162F" fill-rule="nonzero">
                <polygon id="L" points="0.95 0 0 0 0 7.25 4.51 7.25 4.51 6.35 0.95 6.35"></polygon>
                <path d="M7.9,7.38 C8.9,7.38 9.46,7.02 9.79,6.46 L9.8,7.25 L10.68,7.25 C10.65,6.89 10.6,6.12 10.61,5.22 L10.62,3.91 C10.64,2.42 10,1.76 8.51,1.76 C7.39,1.76 6.37,2.41 6.28,3.57 L7.22,3.57 C7.28,2.91 7.67,2.5 8.5,2.5 C9.2,2.5 9.71,2.78 9.71,3.71 L9.71,3.94 C7.51,4.18 6.15,4.57 6.15,5.85 C6.15,6.82 6.93,7.38 7.9,7.38 Z M9.78,4.82 C9.78,6.25 8.98,6.64 8.16,6.64 C7.51,6.64 7.14,6.34 7.14,5.83 C7.14,5.06 8.14,4.83 9.78,4.67 L9.78,4.82 Z" id="a"></path>
                <path d="M16.06,7.25 L16.98,7.25 L16.98,1.87 L16.06,1.87 L16.06,4.83 C16.06,5.98 15.61,6.59 14.78,6.59 C13.78,6.59 13.73,5.88 13.73,5.01 L13.73,1.87 L12.81,1.87 L12.81,5.33 C12.81,6.52 13.18,7.38 14.48,7.38 C15.34,7.38 15.77,7.02 16.06,6.56 L16.06,7.25 Z" id="u"></path>
                <path d="M18.99,1.87 L18.99,2.66 L20.52,2.66 L20.52,6.46 L19,6.46 L19,7.25 L23.28,7.25 L23.28,6.46 L21.44,6.46 L21.44,4.57 C21.44,3.39 21.84,2.71 22.87,2.71 L23.78,2.71 L23.78,1.87 L22.86,1.87 C22.2,1.87 21.68,2.23 21.42,2.83 L21.42,1.87 L18.99,1.87 Z" id="r"></path>
                <path d="M27.28,7.38 C28.28,7.38 28.84,7.02 29.17,6.46 L29.18,7.25 L30.06,7.25 C30.03,6.89 29.98,6.12 29.99,5.22 L30,3.91 C30.02,2.42 29.38,1.76 27.89,1.76 C26.77,1.76 25.75,2.41 25.66,3.57 L26.6,3.57 C26.66,2.91 27.05,2.5 27.88,2.5 C28.58,2.5 29.09,2.78 29.09,3.71 L29.09,3.94 C26.89,4.18 25.53,4.57 25.53,5.85 C25.53,6.82 26.31,7.38 27.28,7.38 Z M29.16,4.82 C29.16,6.25 28.36,6.64 27.54,6.64 C26.89,6.64 26.52,6.34 26.52,5.83 C26.52,5.06 27.52,4.83 29.16,4.67 L29.16,4.82 Z" id="a"></path>
            </g>
        </g>
        <path d="M640,0 L640,317 L0,317 L0,0 L640,0 Z M639,0.975384615 L1,0.975384615 L1,316.024615 L639,316.024615 L639,0.975384615 Z" id="Rectangle" fill="#10162F" fill-rule="nonzero"></path>
    </g>
</svg>