<?xml version="1.0" encoding="UTF-8"?>
<svg width="640px" height="233px" viewBox="0 0 640 233" version="1.1" xmlns="http://www.w3.org/2000/svg" xmlns:xlink="http://www.w3.org/1999/xlink">
    <title>Rest api</title>
    <g id="Rest-api" stroke="none" stroke-width="1" fill="none" fill-rule="evenodd">
        <rect fill="#FFFAE5" x="0" y="0" width="640" height="233"></rect>
        <g id="Group-3" transform="translate(184.000000, 102.000000)">
            <polygon id="Rectangle-Copy-9" fill="#F966FF" points="0 41 8 36 54 36 62 41 62 55 2.32314168e-14 55"></polygon>
            <path d="M53.8566019,36.5 L61.5,41.2771238 L61.5,55.5 L0.5,55.5 L0.5,41.2771238 L8.14339811,36.5 L53.8566019,36.5 Z" id="Rectangle-Copy-7" stroke="#10162F"></path>
            <circle id="Oval-Copy-7" fill="#10162F" cx="6.5" cy="48.5" r="1.5"></circle>
            <path d="M46.5,47 L55.5,47 C56.3284271,47 57,47.6715729 57,48.5 C57,49.3284271 56.3284271,50 55.5,50 L46.5,50 C45.6715729,50 45,49.3284271 45,48.5 C45,47.6715729 45.6715729,47 46.5,47 Z" id="Rectangle-Copy-6" fill="#10162F"></path>
            <circle id="Oval-Copy-6" fill="#10162F" cx="12.5" cy="48.5" r="1.5"></circle>
            <polygon id="Rectangle-Copy-8" fill="#FFFFFF" points="8.36914062 36.552002 53.7399902 36.552002 61.5407715 41.5771484 0.418945312 41.5771484"></polygon>
            <line x1="0.5" y1="41.5" x2="61.5" y2="41.5" id="Line-2-Copy-2" stroke="#10162F" stroke-linecap="square"></line>
            <polygon id="Rectangle-Copy-2" fill="#F966FF" points="0 23 8 18 54 18 62 23 62 37 2.32314168e-14 37"></polygon>
            <polygon id="Rectangle-Copy-3" fill="#FFFFFF" points="8.36914062 18.552002 53.7399902 18.552002 61.5407715 23.5771484 0.418945312 23.5771484"></polygon>
            <path d="M53.8566019,18.5 L61.5,23.2771238 L61.5,37.5 L0.5,37.5 L0.5,23.2771238 L8.14339811,18.5 L53.8566019,18.5 Z" id="Rectangle-Copy-4" stroke="#10162F"></path>
            <line x1="0.5" y1="23.5" x2="61.5" y2="23.5" id="Line-2-Copy" stroke="#10162F" stroke-linecap="square"></line>
            <circle id="Oval-Copy-4" fill="#10162F" cx="6.5" cy="30.5" r="1.5"></circle>
            <polygon id="Rectangle" fill="#F966FF" points="0 5 8 5.6032507e-17 54 2.47718512e-13 62 5 62 19 2.32314168e-14 19"></polygon>
            <path d="M46.5,29 L55.5,29 C56.3284271,29 57,29.6715729 57,30.5 C57,31.3284271 56.3284271,32 55.5,32 L46.5,32 C45.6715729,32 45,31.3284271 45,30.5 C45,29.6715729 45.6715729,29 46.5,29 Z" id="Rectangle-Copy-5" fill="#10162F"></path>
            <polygon id="Rectangle-Copy" fill="#FFFFFF" points="8.36914062 0.552001953 53.7399902 0.552001953 61.5407715 5.57714844 0.418945312 5.57714844"></polygon>
            <circle id="Oval-Copy-5" fill="#10162F" cx="12.5" cy="30.5" r="1.5"></circle>
            <path d="M53.8566019,0.5 L61.5,5.27712382 L61.5,19.5 L0.5,19.5 L0.5,5.27712382 L8.14339811,0.5 L53.8566019,0.5 Z" id="Rectangle" stroke="#10162F"></path>
            <line x1="0.5" y1="5.5" x2="61.5" y2="5.5" id="Line-2" stroke="#10162F" stroke-linecap="square"></line>
            <circle id="Oval" fill="#10162F" cx="6.5" cy="12.5" r="1.5"></circle>
            <path d="M46.5,11 L55.5,11 C56.3284271,11 57,11.6715729 57,12.5 C57,13.3284271 56.3284271,14 55.5,14 L46.5,14 C45.6715729,14 45,13.3284271 45,12.5 C45,11.6715729 45.6715729,11 46.5,11 Z" id="Rectangle" fill="#10162F"></path>
            <circle id="Oval-Copy-3" fill="#10162F" cx="12.5" cy="12.5" r="1.5"></circle>
        </g>
        <g id="Group-2" transform="translate(65.000000, 102.000000)" stroke="#10162F" stroke-width="0.589473684">
            <path d="M0.374183068,36.7277341 L0.374183068,47.9576182 C0.374175942,48.6735225 0.645550703,49.3628135 1.13360655,49.8865696 C4.93142446,53.9621899 10.7202223,56 18.5,56 C26.2795009,56 32.0724184,53.9623349 35.8787524,49.8870047 C36.368182,49.3629911 36.640409,48.6727028 36.640409,47.9556731 L36.640409,36.7277341 L36.640409,36.7277341" id="Path-2-Copy-2" fill="#F966FF" stroke-linejoin="round"></path>
            <ellipse id="Oval-Copy-2" fill="#FFFFFF" cx="18.5" cy="36.7277341" rx="18.2052632" ry="8.18089409"></ellipse>
            <path d="M0.374183068,22.6016825 L0.374183068,33.8315666 C0.374175942,34.5474709 0.645550703,35.236762 1.13360655,35.7605181 C4.93142446,39.8361383 10.7202223,41.8739484 18.5,41.8739484 C26.2795009,41.8739484 32.0724184,39.8362833 35.8787524,35.7609531 C36.368182,35.2369395 36.640409,34.5466512 36.640409,33.8296216 L36.640409,22.6016825 L36.640409,22.6016825" id="Path-2-Copy" fill="#F966FF" stroke-linejoin="round"></path>
            <ellipse id="Oval-Copy" fill="#FFFFFF" cx="18.5" cy="22.6016825" rx="18.2052632" ry="8.18089409"></ellipse>
            <path d="M0.374183068,8.47563094 L0.374183068,19.705515 C0.374175942,20.4214193 0.645550703,21.1107104 1.13360655,21.6344665 C4.93142446,25.7100868 10.7202223,27.7478969 18.5,27.7478969 C26.2795009,27.7478969 32.0724184,25.7102318 35.8787524,21.6349016 C36.368182,21.110888 36.640409,20.4205997 36.640409,19.70357 L36.640409,8.47563094 L36.640409,8.47563094" id="Path-2" fill="#F966FF" stroke-linejoin="round"></path>
            <ellipse id="Oval" fill="#FFFFFF" cx="18.5" cy="8.47563094" rx="18.2052632" ry="8.18089409"></ellipse>
        </g>
        <g id="What-is-Rest-API?" transform="translate(235.220000, 35.962000)" fill="#10162F" fill-rule="nonzero">
            <polygon id="W" points="0 0.638 3.036 0.638 5.61 11.968 8.492 2.266 10.956 2.266 13.838 11.968 16.412 0.638 19.448 0.638 15.422 16.038 12.518 16.038 9.724 6.974 6.93 16.038 4.026 16.038"></polygon>
            <path d="M23.936,0.462 L23.936,6.732 C24.3026667,6.14533333 24.7903333,5.67233333 25.399,5.313 C26.0076667,4.95366667 26.6933333,4.774 27.456,4.774 C28.5266667,4.774 29.37,5.05633333 29.986,5.621 C30.602,6.18566667 30.91,7.018 30.91,8.118 L30.91,16.038 L28.182,16.038 L28.182,9.086 C28.182,8.41133333 28.0463333,7.91266667 27.775,7.59 C27.5036667,7.26733333 27.0893333,7.106 26.532,7.106 C26.092,7.106 25.674,7.26 25.278,7.568 C24.882,7.876 24.5593333,8.34533333 24.31,8.976 C24.0606667,9.60666667 23.936,10.3986667 23.936,11.352 L23.936,16.038 L21.208,16.038 L21.208,0.462 L23.936,0.462 Z" id="h"></path>
            <path d="M36.432,16.214 C35.4493333,16.214 34.6426667,15.9206667 34.012,15.334 C33.3813333,14.7473333 33.066,13.9186667 33.066,12.848 C33.066,11.748 33.484,10.868 34.32,10.208 C35.156,9.548 36.2853333,9.218 37.708,9.218 L39.644,9.218 L39.644,8.734 C39.644,8.19133333 39.4606667,7.78433333 39.094,7.513 C38.7273333,7.24166667 38.2653333,7.106 37.708,7.106 C36.7546667,7.106 36.1166667,7.53133333 35.794,8.382 L33.484,7.854 C33.66,6.93 34.133,6.18566667 34.903,5.621 C35.673,5.05633333 36.608,4.774 37.708,4.774 C39.1893333,4.774 40.337,5.16633333 41.151,5.951 C41.965,6.73566667 42.372,7.89066667 42.372,9.416 L42.372,16.038 L40.128,16.038 L39.842,14.63 C38.9766667,15.686 37.84,16.214 36.432,16.214 Z M37.158,13.882 C37.818,13.882 38.3973333,13.673 38.896,13.255 C39.3946667,12.837 39.644,12.2833333 39.644,11.594 L39.644,11.374 L37.818,11.374 C37.2166667,11.374 36.751,11.4913333 36.421,11.726 C36.091,11.9606667 35.926,12.32 35.926,12.804 C35.926,13.1266667 36.0396667,13.387 36.267,13.585 C36.4943333,13.783 36.7913333,13.882 37.158,13.882 Z" id="a"></path>
            <path d="M49.676,16.214 C48.4,16.214 47.4026667,15.8693333 46.684,15.18 C45.9653333,14.4906667 45.606,13.4713333 45.606,12.122 L45.606,7.282 L43.89,7.282 L43.89,4.95 L45.606,4.95 L45.606,2.178 L48.334,0.462 L48.334,4.95 L51.26,4.95 L51.26,7.282 L48.334,7.282 L48.334,12.078 C48.334,12.738 48.455,13.2036667 48.697,13.475 C48.939,13.7463333 49.302,13.882 49.786,13.882 C50.1526667,13.882 50.5046667,13.794 50.842,13.618 L51.48,15.818 C50.908,16.082 50.3066667,16.214 49.676,16.214 Z" id="t"></path>
            <path d="M58.828,4.95 L61.556,4.95 L61.556,16.038 L58.828,16.038 L58.828,4.95 Z M60.192,3.52 C59.6933333,3.52 59.2753333,3.35133333 58.938,3.014 C58.6006667,2.67666667 58.432,2.25866667 58.432,1.76 C58.432,1.26133333 58.6006667,0.843333333 58.938,0.506 C59.2753333,0.168666667 59.6933333,0 60.192,0 C60.6906667,0 61.1086667,0.168666667 61.446,0.506 C61.7833333,0.843333333 61.952,1.26133333 61.952,1.76 C61.952,2.25866667 61.7833333,2.67666667 61.446,3.014 C61.1086667,3.35133333 60.6906667,3.52 60.192,3.52 Z" id="i"></path>
            <path d="M68.024,16.214 C66.88,16.214 65.923,15.9206667 65.153,15.334 C64.383,14.7473333 63.8733333,14.0433333 63.624,13.222 L65.802,12.056 C66.0073333,12.628 66.297,13.0753333 66.671,13.398 C67.045,13.7206667 67.4886667,13.882 68.002,13.882 C68.354,13.882 68.6546667,13.7903333 68.904,13.607 C69.1533333,13.4236667 69.278,13.156 69.278,12.804 C69.278,12.4666667 69.0873333,12.177 68.706,11.935 C68.3246667,11.693 67.7526667,11.4253333 66.99,11.132 C66.154,10.7946667 65.505,10.3693333 65.043,9.856 C64.581,9.34266667 64.35,8.68266667 64.35,7.876 C64.35,7.304 64.5003333,6.78333333 64.801,6.314 C65.1016667,5.84466667 65.516,5.47066667 66.044,5.192 C66.572,4.91333333 67.1733333,4.774 67.848,4.774 C68.596,4.774 69.278,4.93166667 69.894,5.247 C70.51,5.56233333 70.9866667,6.006 71.324,6.578 L69.696,8.074 C69.256,7.42866667 68.662,7.106 67.914,7.106 C67.6206667,7.106 67.3676667,7.183 67.155,7.337 C66.9423333,7.491 66.836,7.69266667 66.836,7.942 C66.836,8.206 66.99,8.45166667 67.298,8.679 C67.606,8.90633333 68.2073333,9.18133333 69.102,9.504 C69.9673333,9.812 70.6346667,10.2153333 71.104,10.714 C71.5733333,11.2126667 71.808,11.8506667 71.808,12.628 C71.808,13.7133333 71.456,14.5823333 70.752,15.235 C70.048,15.8876667 69.1386667,16.214 68.024,16.214 Z" id="s"></path>
            <path d="M85.426,0.638 C86.922,0.638 88.077,1.03766667 88.891,1.837 C89.705,2.63633333 90.112,3.696 90.112,5.016 C90.112,6.04266667 89.8626667,6.919 89.364,7.645 C88.8653333,8.371 88.154,8.87333333 87.23,9.152 L91.498,16.038 L88.308,16.038 L84.172,9.394 L82.676,9.394 L82.676,16.038 L79.816,16.038 L79.816,0.638 L85.426,0.638 Z M85.448,6.754 C86.0053333,6.754 86.4453333,6.61466667 86.768,6.336 C87.0906667,6.05733333 87.252,5.61733333 87.252,5.016 C87.252,4.41466667 87.0906667,3.97466667 86.768,3.696 C86.4453333,3.41733333 86.0053333,3.278 85.448,3.278 L82.676,3.278 L82.676,6.754 L85.448,6.754 Z" id="R"></path>
            <path d="M102.74,11.374 L95.084,11.374 C95.2013333,12.1953333 95.491,12.8186667 95.953,13.244 C96.415,13.6693333 97.0053333,13.882 97.724,13.882 C98.34,13.882 98.857,13.7426667 99.275,13.464 C99.693,13.1853333 100.070667,12.7526667 100.408,12.166 L102.608,12.98 C102.153333,14.0213333 101.519,14.8206667 100.705,15.378 C99.891,15.9353333 98.846,16.214 97.57,16.214 C96.3673333,16.214 95.3663333,15.9316667 94.567,15.367 C93.7676667,14.8023333 93.181,14.0836667 92.807,13.211 C92.433,12.3383333 92.246,11.4326667 92.246,10.494 C92.246,9.55533333 92.433,8.64966667 92.807,7.777 C93.181,6.90433333 93.7676667,6.18566667 94.567,5.621 C95.3663333,5.05633333 96.3673333,4.774 97.57,4.774 C98.7286667,4.774 99.6966667,5.049 100.474,5.599 C101.251333,6.149 101.823333,6.842 102.19,7.678 C102.556667,8.514 102.74,9.372 102.74,10.252 L102.74,11.374 Z M99.946,9.218 C99.814,8.602 99.5536667,8.096 99.165,7.7 C98.7763333,7.304 98.2446667,7.106 97.57,7.106 C96.9833333,7.106 96.4773333,7.28566667 96.052,7.645 C95.6266667,8.00433333 95.326,8.52866667 95.15,9.218 L99.946,9.218 Z" id="e"></path>
            <path d="M108.57,16.214 C107.426,16.214 106.469,15.9206667 105.699,15.334 C104.929,14.7473333 104.419333,14.0433333 104.17,13.222 L106.348,12.056 C106.553333,12.628 106.843,13.0753333 107.217,13.398 C107.591,13.7206667 108.034667,13.882 108.548,13.882 C108.9,13.882 109.200667,13.7903333 109.45,13.607 C109.699333,13.4236667 109.824,13.156 109.824,12.804 C109.824,12.4666667 109.633333,12.177 109.252,11.935 C108.870667,11.693 108.298667,11.4253333 107.536,11.132 C106.7,10.7946667 106.051,10.3693333 105.589,9.856 C105.127,9.34266667 104.896,8.68266667 104.896,7.876 C104.896,7.304 105.046333,6.78333333 105.347,6.314 C105.647667,5.84466667 106.062,5.47066667 106.59,5.192 C107.118,4.91333333 107.719333,4.774 108.394,4.774 C109.142,4.774 109.824,4.93166667 110.44,5.247 C111.056,5.56233333 111.532667,6.006 111.87,6.578 L110.242,8.074 C109.802,7.42866667 109.208,7.106 108.46,7.106 C108.166667,7.106 107.913667,7.183 107.701,7.337 C107.488333,7.491 107.382,7.69266667 107.382,7.942 C107.382,8.206 107.536,8.45166667 107.844,8.679 C108.152,8.90633333 108.753333,9.18133333 109.648,9.504 C110.513333,9.812 111.180667,10.2153333 111.65,10.714 C112.119333,11.2126667 112.354,11.8506667 112.354,12.628 C112.354,13.7133333 112.002,14.5823333 111.298,15.235 C110.594,15.8876667 109.684667,16.214 108.57,16.214 Z" id="s"></path>
            <path d="M118.954,16.214 C117.678,16.214 116.680667,15.8693333 115.962,15.18 C115.243333,14.4906667 114.884,13.4713333 114.884,12.122 L114.884,7.282 L113.168,7.282 L113.168,4.95 L114.884,4.95 L114.884,2.178 L117.612,0.462 L117.612,4.95 L120.538,4.95 L120.538,7.282 L117.612,7.282 L117.612,12.078 C117.612,12.738 117.733,13.2036667 117.975,13.475 C118.217,13.7463333 118.58,13.882 119.064,13.882 C119.430667,13.882 119.782667,13.794 120.12,13.618 L120.758,15.818 C120.186,16.082 119.584667,16.214 118.954,16.214 Z" id="t"></path>
            <path d="M132,0.638 L134.86,0.638 L140.074,16.038 L136.994,16.038 L135.872,12.408 L130.988,12.408 L129.866,16.038 L126.786,16.038 L132,0.638 Z M135.058,9.768 L133.43,4.422 L131.802,9.768 L135.058,9.768 Z" id="A"></path>
            <path d="M147.862,0.638 C149.431333,0.638 150.626667,1.067 151.448,1.925 C152.269333,2.783 152.68,3.916 152.68,5.324 C152.68,6.732 152.269333,7.865 151.448,8.723 C150.626667,9.581 149.431333,10.01 147.862,10.01 L144.914,10.01 L144.914,16.038 L142.054,16.038 L142.054,0.638 L147.862,0.638 Z M147.752,7.37 C148.397333,7.37 148.896,7.20133333 149.248,6.864 C149.6,6.52666667 149.776,6.01333333 149.776,5.324 C149.776,4.63466667 149.6,4.12133333 149.248,3.784 C148.896,3.44666667 148.397333,3.278 147.752,3.278 L144.914,3.278 L144.914,7.37 L147.752,7.37 Z" id="P"></path>
            <polygon id="I" points="155.188 0.638 158.048 0.638 158.048 16.038 155.188 16.038"></polygon>
            <path d="M164.89,11.352 C163.995333,11.352 163.265667,11.0916667 162.701,10.571 C162.136333,10.0503333 161.854,9.372 161.854,8.536 C161.854,7.832 162.063,7.25266667 162.481,6.798 C162.899,6.34333333 163.482,5.96933333 164.23,5.676 C165.080667,5.35333333 165.66,5.06 165.968,4.796 C166.276,4.532 166.43,4.21666667 166.43,3.85 C166.43,3.48333333 166.298,3.20833333 166.034,3.025 C165.77,2.84166667 165.425333,2.75 165,2.75 C164.545333,2.75 164.156667,2.87833333 163.834,3.135 C163.511333,3.39166667 163.276667,3.75466667 163.13,4.224 L160.732,3.828 C160.908,2.86 161.366333,2.057 162.107,1.419 C162.847667,0.781 163.79,0.462 164.934,0.462 C166.166,0.462 167.152333,0.777333333 167.893,1.408 C168.633667,2.03866667 169.004,2.882 169.004,3.938 C169.004,4.75933333 168.765667,5.39733333 168.289,5.852 C167.812333,6.30666667 167.038667,6.73933333 165.968,7.15 C165.234667,7.44333333 164.739667,7.68533333 164.483,7.876 C164.226333,8.06666667 164.098,8.30866667 164.098,8.602 C164.098,8.83666667 164.175,9.02366667 164.329,9.163 C164.483,9.30233333 164.67,9.372 164.89,9.372 C165.491333,9.372 165.909333,9.03466667 166.144,8.36 L168.08,9.086 C167.830667,9.79 167.431,10.3436667 166.881,10.747 C166.331,11.1503333 165.667333,11.352 164.89,11.352 Z M164.89,16.17 C164.376667,16.17 163.944,15.994 163.592,15.642 C163.24,15.29 163.064,14.8646667 163.064,14.366 C163.064,13.8526667 163.243667,13.4163333 163.603,13.057 C163.962333,12.6976667 164.391333,12.518 164.89,12.518 C165.388667,12.518 165.817667,12.6976667 166.177,13.057 C166.536333,13.4163333 166.716,13.8526667 166.716,14.366 C166.716,14.8646667 166.54,15.29 166.188,15.642 C165.836,15.994 165.403333,16.17 164.89,16.17 Z" id="?"></path>
        </g>
        <g id="DATABASE" transform="translate(63.080000, 170.096000)" fill="#10162F" fill-rule="nonzero">
            <path d="M3.192,3 C3.192,4.968 2.048,5.184 0.968,5.184 L0.76,5.184 L0.76,0.824 L0.968,0.824 C2.048,0.824 3.192,1.024 3.192,3 Z M0,0.104 L0,5.904 L0.992,5.904 C2.64,5.904 3.968,5.208 3.968,3 C3.968,0.784 2.64,0.104 0.992,0.104 L0,0.104 Z" id="D"></path>
            <path d="M7.408,0.104 L6.592,0.104 L4.688,5.904 L5.504,5.904 L5.888,4.664 L8.104,4.664 L8.496,5.904 L9.312,5.904 L7.408,0.104 Z M7,1.12 L7.88,3.952 L6.112,3.952 L7,1.12 Z" id="A"></path>
            <polygon id="T" points="11.784 5.904 12.544 5.904 12.544 0.824 14.288 0.824 14.288 0.104 10.04 0.104 10.04 0.824 11.784 0.824"></polygon>
            <path d="M17.744,0.104 L16.928,0.104 L15.024,5.904 L15.84,5.904 L16.224,4.664 L18.44,4.664 L18.832,5.904 L19.648,5.904 L17.744,0.104 Z M17.336,1.12 L18.216,3.952 L16.448,3.952 L17.336,1.12 Z" id="A"></path>
            <path d="M20.72,5.904 L22.608,5.904 C23.648,5.904 24.552,5.416 24.552,4.184 C24.552,3.472 24.256,3.04 23.76,2.808 C24.128,2.576 24.336,2.088 24.336,1.536 C24.336,0.384 23.4,0.104 22.432,0.104 L20.72,0.104 L20.72,5.904 Z M21.48,3.248 L22.616,3.248 C23.4,3.248 23.768,3.512 23.768,4.192 C23.768,4.848 23.4,5.184 22.672,5.184 L21.48,5.184 L21.48,3.248 Z M21.48,0.824 L22.592,0.824 C23.176,0.824 23.576,1.056 23.576,1.648 C23.576,2.328 23.192,2.568 22.592,2.568 L21.48,2.568 L21.48,0.824 Z" id="B"></path>
            <path d="M28.08,0.104 L27.264,0.104 L25.36,5.904 L26.176,5.904 L26.56,4.664 L28.776,4.664 L29.168,5.904 L29.984,5.904 L28.08,0.104 Z M27.672,1.12 L28.552,3.952 L26.784,3.952 L27.672,1.12 Z" id="A"></path>
            <path d="M32.376,3.168 L33.008,3.32 C33.64,3.464 34.096,3.736 34.096,4.336 C34.096,5 33.504,5.304 32.928,5.304 C32.184,5.304 31.64,4.872 31.56,4.096 L30.808,4.096 C30.872,5.248 31.728,6.008 32.904,6.008 C34.024,6.008 34.864,5.36 34.864,4.28 C34.864,3.176 34.048,2.768 33.112,2.56 L32.536,2.432 C32.072,2.328 31.696,2.08 31.696,1.568 C31.696,0.968 32.248,0.704 32.776,0.704 C33.304,0.704 33.904,0.936 33.992,1.632 L34.744,1.632 C34.616,0.48 33.712,0 32.816,0 C31.776,0 30.912,0.592 30.912,1.592 C30.912,2.512 31.616,3 32.376,3.168 Z" id="S"></path>
            <polygon id="E" points="36.32 5.904 39.776 5.904 39.776 5.184 37.08 5.184 37.08 3.272 39.616 3.272 39.616 2.552 37.08 2.552 37.08 0.824 39.776 0.824 39.776 0.104 36.32 0.104"></polygon>
        </g>
        <g id="Group-4" transform="translate(327.000000, 102.000000)">
            <path d="M15.012177,25.325774 C11.3550621,25.325774 0,27.9256995 0,40.5459799 C0,53.1662604 10.5111461,56 16.0309072,56 C19.710748,56 29.1311986,56 44.2922591,56 C56.592207,56 65.9332628,56 72.3154264,56 C81.8886719,56 90.0931654,50.3701059 90.0931654,39.9542336 C90.0931654,29.5383613 81.8886719,22.316346 69.9654854,22.316346 C69.9654854,19.1941628 67.5228927,14.0493783 62.7272998,11.8012666 C57.9317068,9.55315484 52.0575097,10.876499 50.1380488,11.8012666 C49.5362507,8.15857386 42.6166641,-2.3901573 28.6485655,0.492967339 C14.6804669,3.37609198 12.2911926,18.3991948 15.012177,25.325774 Z" id="Path-3" stroke="#10162F" fill="#FFFFFF"></path>
            <text id="RESTFUL-API" font-family="SuisseIntlMono, Suisse Int'l Mono" font-size="8" font-weight="normal" fill="#10162F">
                <tspan x="16.152" y="38">RESTFUL API</tspan>
            </text>
        </g>
        <g id="WEB-SERVER" transform="translate(189.504000, 172.096000)" fill="#10162F" fill-rule="nonzero">
            <polygon id="W" points="2.648 1.872 1.824 1.872 1.184 4.8 0.76 0.104 0 0.104 0.576 5.904 1.568 5.904 2.24 2.88 2.912 5.904 3.896 5.904 4.48 0.104 3.72 0.104 3.288 4.8"></polygon>
            <polygon id="E" points="5.72 5.904 9.176 5.904 9.176 5.184 6.48 5.184 6.48 3.272 9.016 3.272 9.016 2.552 6.48 2.552 6.48 0.824 9.176 0.824 9.176 0.104 5.72 0.104"></polygon>
            <path d="M10.792,5.904 L12.68,5.904 C13.72,5.904 14.624,5.416 14.624,4.184 C14.624,3.472 14.328,3.04 13.832,2.808 C14.2,2.576 14.408,2.088 14.408,1.536 C14.408,0.384 13.472,0.104 12.504,0.104 L10.792,0.104 L10.792,5.904 Z M11.552,3.248 L12.688,3.248 C13.472,3.248 13.84,3.512 13.84,4.192 C13.84,4.848 13.472,5.184 12.744,5.184 L11.552,5.184 L11.552,3.248 Z M11.552,0.824 L12.664,0.824 C13.248,0.824 13.648,1.056 13.648,1.648 C13.648,2.328 13.264,2.568 12.664,2.568 L11.552,2.568 L11.552,0.824 Z" id="B"></path>
            <path d="M22.448,3.168 L23.08,3.32 C23.712,3.464 24.168,3.736 24.168,4.336 C24.168,5 23.576,5.304 23,5.304 C22.256,5.304 21.712,4.872 21.632,4.096 L20.88,4.096 C20.944,5.248 21.8,6.008 22.976,6.008 C24.096,6.008 24.936,5.36 24.936,4.28 C24.936,3.176 24.12,2.768 23.184,2.56 L22.608,2.432 C22.144,2.328 21.768,2.08 21.768,1.568 C21.768,0.968 22.32,0.704 22.848,0.704 C23.376,0.704 23.976,0.936 24.064,1.632 L24.816,1.632 C24.688,0.48 23.784,0 22.888,0 C21.848,0 20.984,0.592 20.984,1.592 C20.984,2.512 21.688,3 22.448,3.168 Z" id="S"></path>
            <polygon id="E" points="26.392 5.904 29.848 5.904 29.848 5.184 27.152 5.184 27.152 3.272 29.688 3.272 29.688 2.552 27.152 2.552 27.152 0.824 29.848 0.824 29.848 0.104 26.392 0.104"></polygon>
            <path d="M34.512,5.904 L35.376,5.904 L34.144,3.312 C34.776,3.112 35.192,2.664 35.192,1.76 C35.192,0.376 34.216,0.104 32.952,0.104 L31.536,0.104 L31.536,5.904 L32.296,5.904 L32.296,3.464 L32.952,3.464 C33.096,3.464 33.24,3.464 33.376,3.456 L34.512,5.904 Z M33.04,0.824 C33.808,0.824 34.408,0.88 34.408,1.776 C34.408,2.672 33.808,2.744 33.04,2.744 L32.296,2.744 L32.296,0.824 L33.04,0.824 Z" id="R"></path>
            <polygon id="V" points="38.008 5.904 38.816 5.904 40.64 0.104 39.824 0.104 38.408 4.888 37 0.104 36.184 0.104"></polygon>
            <polygon id="E" points="41.896 5.904 45.352 5.904 45.352 5.184 42.656 5.184 42.656 3.272 45.192 3.272 45.192 2.552 42.656 2.552 42.656 0.824 45.352 0.824 45.352 0.104 41.896 0.104"></polygon>
            <path d="M50.016,5.904 L50.88,5.904 L49.648,3.312 C50.28,3.112 50.696,2.664 50.696,1.76 C50.696,0.376 49.72,0.104 48.456,0.104 L47.04,0.104 L47.04,5.904 L47.8,5.904 L47.8,3.464 L48.456,3.464 C48.6,3.464 48.744,3.464 48.88,3.456 L50.016,5.904 Z M48.544,0.824 C49.312,0.824 49.912,0.88 49.912,1.776 C49.912,2.672 49.312,2.744 48.544,2.744 L47.8,2.744 L47.8,0.824 L48.544,0.824 Z" id="R"></path>
        </g>
        <g id="YOUR-WEBSITE-APPLICA" transform="translate(508.692000, 175.096000)" fill="#10162F" fill-rule="nonzero">
            <polygon id="Y" points="2.384 2.944 0.888 0.104 0 0.104 2 3.728 2 5.904 2.76 5.904 2.76 3.728 4.76 0.104 3.872 0.104"></polygon>
            <path d="M7.552,0 C6.104,0 5.384,1.248 5.384,3 C5.384,4.744 6.104,6.008 7.552,6.008 C9,6.008 9.72,4.744 9.72,3 C9.72,1.248 9,0 7.552,0 Z M7.552,0.704 C8.512,0.704 8.936,1.536 8.936,3 C8.936,4.464 8.512,5.304 7.552,5.304 C6.6,5.304 6.168,4.464 6.168,3 C6.168,1.536 6.6,0.704 7.552,0.704 Z" id="O"></path>
            <path d="M10.768,0.104 L10.768,3.544 C10.768,5.352 11.264,6.008 12.712,6.008 C14.224,6.008 14.672,5.176 14.672,3.48 L14.672,0.104 L13.912,0.104 L13.912,3.544 C13.912,4.688 13.712,5.304 12.712,5.304 C11.728,5.304 11.528,4.768 11.528,3.632 L11.528,0.104 L10.768,0.104 Z" id="U"></path>
            <path d="M19.152,5.904 L20.016,5.904 L18.784,3.312 C19.416,3.112 19.832,2.664 19.832,1.76 C19.832,0.376 18.856,0.104 17.592,0.104 L16.176,0.104 L16.176,5.904 L16.936,5.904 L16.936,3.464 L17.592,3.464 C17.736,3.464 17.88,3.464 18.016,3.456 L19.152,5.904 Z M17.68,0.824 C18.448,0.824 19.048,0.88 19.048,1.776 C19.048,2.672 18.448,2.744 17.68,2.744 L16.936,2.744 L16.936,0.824 L17.68,0.824 Z" id="R"></path>
            <polygon id="W" points="28.632 1.872 27.808 1.872 27.168 4.8 26.744 0.104 25.984 0.104 26.56 5.904 27.552 5.904 28.224 2.88 28.896 5.904 29.88 5.904 30.464 0.104 29.704 0.104 29.272 4.8"></polygon>
            <polygon id="E" points="31.704 5.904 35.16 5.904 35.16 5.184 32.464 5.184 32.464 3.272 35 3.272 35 2.552 32.464 2.552 32.464 0.824 35.16 0.824 35.16 0.104 31.704 0.104"></polygon>
            <path d="M36.776,5.904 L38.664,5.904 C39.704,5.904 40.608,5.416 40.608,4.184 C40.608,3.472 40.312,3.04 39.816,2.808 C40.184,2.576 40.392,2.088 40.392,1.536 C40.392,0.384 39.456,0.104 38.488,0.104 L36.776,0.104 L36.776,5.904 Z M37.536,3.248 L38.672,3.248 C39.456,3.248 39.824,3.512 39.824,4.192 C39.824,4.848 39.456,5.184 38.728,5.184 L37.536,5.184 L37.536,3.248 Z M37.536,0.824 L38.648,0.824 C39.232,0.824 39.632,1.056 39.632,1.648 C39.632,2.328 39.248,2.568 38.648,2.568 L37.536,2.568 L37.536,0.824 Z" id="B"></path>
            <path d="M43.264,3.168 L43.896,3.32 C44.528,3.464 44.984,3.736 44.984,4.336 C44.984,5 44.392,5.304 43.816,5.304 C43.072,5.304 42.528,4.872 42.448,4.096 L41.696,4.096 C41.76,5.248 42.616,6.008 43.792,6.008 C44.912,6.008 45.752,5.36 45.752,4.28 C45.752,3.176 44.936,2.768 44,2.56 L43.424,2.432 C42.96,2.328 42.584,2.08 42.584,1.568 C42.584,0.968 43.136,0.704 43.664,0.704 C44.192,0.704 44.792,0.936 44.88,1.632 L45.632,1.632 C45.504,0.48 44.6,0 43.704,0 C42.664,0 41.8,0.592 41.8,1.592 C41.8,2.512 42.504,3 43.264,3.168 Z" id="S"></path>
            <polygon id="I" points="47.048 0.824 48.512 0.824 48.512 5.184 47.048 5.184 47.048 5.904 50.736 5.904 50.736 5.184 49.272 5.184 49.272 0.824 50.736 0.824 50.736 0.104 47.048 0.104"></polygon>
            <polygon id="T" points="53.68 5.904 54.44 5.904 54.44 0.824 56.184 0.824 56.184 0.104 51.936 0.104 51.936 0.824 53.68 0.824"></polygon>
            <polygon id="E" points="57.544 5.904 61 5.904 61 5.184 58.304 5.184 58.304 3.272 60.84 3.272 60.84 2.552 58.304 2.552 58.304 0.824 61 0.824 61 0.104 57.544 0.104"></polygon>
            <path d="M5.376,10.104 L4.56,10.104 L2.656,15.904 L3.472,15.904 L3.856,14.664 L6.072,14.664 L6.464,15.904 L7.28,15.904 L5.376,10.104 Z M4.968,11.12 L5.848,13.952 L4.08,13.952 L4.968,11.12 Z" id="A"></path>
            <path d="M8.52,10.104 L8.52,15.904 L9.28,15.904 L9.28,13.672 L9.944,13.672 C11.216,13.672 12.192,13.328 12.192,11.888 C12.192,10.448 11.216,10.104 9.944,10.104 L8.52,10.104 Z M10.04,10.824 C10.816,10.824 11.408,10.944 11.408,11.888 C11.408,12.832 10.816,12.952 10.04,12.952 L9.28,12.952 L9.28,10.824 L10.04,10.824 Z" id="P"></path>
            <path d="M13.688,10.104 L13.688,15.904 L14.448,15.904 L14.448,13.672 L15.112,13.672 C16.384,13.672 17.36,13.328 17.36,11.888 C17.36,10.448 16.384,10.104 15.112,10.104 L13.688,10.104 Z M15.208,10.824 C15.984,10.824 16.576,10.944 16.576,11.888 C16.576,12.832 15.984,12.952 15.208,12.952 L14.448,12.952 L14.448,10.824 L15.208,10.824 Z" id="P"></path>
            <polygon id="L" points="19.648 10.104 18.888 10.104 18.888 15.904 22.496 15.904 22.496 15.184 19.648 15.184"></polygon>
            <polygon id="I" points="23.792 10.824 25.256 10.824 25.256 15.184 23.792 15.184 23.792 15.904 27.48 15.904 27.48 15.184 26.016 15.184 26.016 10.824 27.48 10.824 27.48 10.104 23.792 10.104"></polygon>
            <path d="M32.088,14.104 C31.984,14.8 31.616,15.304 30.88,15.304 C29.992,15.304 29.536,14.424 29.536,12.992 C29.536,11.512 30.024,10.704 30.864,10.704 C31.6,10.704 31.96,11.28 32.056,11.944 L32.832,11.944 C32.64,10.768 31.888,9.992 30.888,9.992 C29.504,9.992 28.752,11.192 28.752,12.992 C28.752,14.752 29.416,16.008 30.832,16.008 C31.88,16.008 32.648,15.344 32.848,14.104 L32.088,14.104 Z" id="C"></path>
            <path d="M36.384,10.104 L35.568,10.104 L33.664,15.904 L34.48,15.904 L34.864,14.664 L37.08,14.664 L37.472,15.904 L38.288,15.904 L36.384,10.104 Z M35.976,11.12 L36.856,13.952 L35.088,13.952 L35.976,11.12 Z" id="A"></path>
            <polygon id="T" points="40.76 15.904 41.52 15.904 41.52 10.824 43.264 10.824 43.264 10.104 39.016 10.104 39.016 10.824 40.76 10.824"></polygon>
            <polygon id="I" points="44.464 10.824 45.928 10.824 45.928 15.184 44.464 15.184 44.464 15.904 48.152 15.904 48.152 15.184 46.688 15.184 46.688 10.824 48.152 10.824 48.152 10.104 44.464 10.104"></polygon>
            <path d="M51.48,10 C50.032,10 49.312,11.248 49.312,13 C49.312,14.744 50.032,16.008 51.48,16.008 C52.928,16.008 53.648,14.744 53.648,13 C53.648,11.248 52.928,10 51.48,10 Z M51.48,10.704 C52.44,10.704 52.864,11.536 52.864,13 C52.864,14.464 52.44,15.304 51.48,15.304 C50.528,15.304 50.096,14.464 50.096,13 C50.096,11.536 50.528,10.704 51.48,10.704 Z" id="O"></path>
            <polygon id="N" points="58.52 15.904 58.52 10.104 57.76 10.104 57.76 15.04 55.904 10.104 54.768 10.104 54.768 15.904 55.528 15.904 55.528 10.952 57.384 15.904"></polygon>
        </g>
        <g id="Group-Copy" transform="translate(432.000000, 105.000000)" stroke="#10162F" stroke-linecap="round" stroke-linejoin="round">
            <g id="Group-5-Copy-2" transform="translate(28.250000, 39.500000) rotate(-90.000000) translate(-28.250000, -39.500000) translate(17.750000, 11.250000)">
                <line x1="10.5" y1="56.5" x2="10.5" y2="3.83314448e-14" id="Stroke-1"></line>
                <polyline id="Stroke-3" points="21 10.5 10.5 3.89437682e-14 0 10.5"></polyline>
            </g>
            <g id="Group-5-Copy-3" transform="translate(28.750000, 10.500000) rotate(-270.000000) translate(-28.750000, -10.500000) translate(18.250000, -17.750000)">
                <line x1="10.5" y1="56.5" x2="10.5" y2="1.41671117e-14" id="Stroke-1"></line>
                <polyline id="Stroke-3" points="21 10.5 10.5 6.04038408e-15 0 10.5"></polyline>
            </g>
        </g>
        <g id="Group-Copy-2" transform="translate(258.000000, 105.000000)" stroke="#10162F" stroke-linecap="round" stroke-linejoin="round">
            <g id="Group-5-Copy-2" transform="translate(28.250000, 39.500000) rotate(-90.000000) translate(-28.250000, -39.500000) translate(17.750000, 11.250000)">
                <line x1="10.5" y1="56.5" x2="10.5" y2="3.83314448e-14" id="Stroke-1"></line>
                <polyline id="Stroke-3" points="21 10.5 10.5 3.89437682e-14 0 10.5"></polyline>
            </g>
            <g id="Group-5-Copy-3" transform="translate(28.750000, 10.500000) rotate(-270.000000) translate(-28.750000, -10.500000) translate(18.250000, -17.750000)">
                <line x1="10.5" y1="56.5" x2="10.5" y2="1.41671117e-14" id="Stroke-1"></line>
                <polyline id="Stroke-3" points="21 10.5 10.5 6.04038408e-15 0 10.5"></polyline>
            </g>
        </g>
        <g id="Group-Copy-3" transform="translate(114.000000, 105.000000)" stroke="#10162F" stroke-linecap="round" stroke-linejoin="round">
            <g id="Group-5-Copy-2" transform="translate(28.250000, 39.500000) rotate(-90.000000) translate(-28.250000, -39.500000) translate(17.750000, 11.250000)">
                <line x1="10.5" y1="56.5" x2="10.5" y2="3.83314448e-14" id="Stroke-1"></line>
                <polyline id="Stroke-3" points="21 10.5 10.5 3.89437682e-14 0 10.5"></polyline>
            </g>
            <g id="Group-5-Copy-3" transform="translate(28.750000, 10.500000) rotate(-270.000000) translate(-28.750000, -10.500000) translate(18.250000, -17.750000)">
                <line x1="10.5" y1="56.5" x2="10.5" y2="1.41671117e-14" id="Stroke-1"></line>
                <polyline id="Stroke-3" points="21 10.5 10.5 6.04038408e-15 0 10.5"></polyline>
            </g>
        </g>
        <g id="Group" transform="translate(501.000000, 97.000000)" stroke="#10162F">
            <path d="M63,0.5 C63.9664983,0.5 64.8414983,0.891750844 65.4748737,1.52512627 C66.1082492,2.15850169 66.5,3.03350169 66.5,4 L66.5,4 L66.5,46 C66.5,46.9664983 66.1082492,47.8414983 65.4748737,48.4748737 C64.8414983,49.1082492 63.9664983,49.5 63,49.5 L63,49.5 L4,49.5 C3.03350169,49.5 2.15850169,49.1082492 1.52512627,48.4748737 C0.891750844,47.8414983 0.5,46.9664983 0.5,46 L0.5,46 L0.5,4 C0.5,3.03350169 0.891750844,2.15850169 1.52512627,1.52512627 C2.15850169,0.891750844 3.03350169,0.5 4,0.5 L4,0.5 Z" id="Rectangle" fill="#FFFFFF"></path>
            <path d="M63,2.5 C63.4142136,2.5 63.7892136,2.66789322 64.0606602,2.93933983 C64.3321068,3.21078644 64.5,3.58578644 64.5,4 L64.5,4 L64.5,46 C64.5,46.4142136 64.3321068,46.7892136 64.0606602,47.0606602 C63.7892136,47.3321068 63.4142136,47.5 63,47.5 L63,47.5 L4,47.5 C3.58578644,47.5 3.21078644,47.3321068 2.93933983,47.0606602 C2.66789322,46.7892136 2.5,46.4142136 2.5,46 L2.5,46 L2.5,4 C2.5,3.58578644 2.66789322,3.21078644 2.93933983,2.93933983 C3.21078644,2.66789322 3.58578644,2.5 4,2.5 L4,2.5 Z" id="Rectangle" fill="#F966FF"></path>
            <path d="M27.6754125,23.4672136 C26.891745,23.4672136 24.4585175,24.0243405 24.4585175,26.7286863 C24.4585175,29.4330322 26.7109059,30.0402621 27.8937119,30.0402621 C28.6822492,30.0402621 30.7009172,30.0402621 33.9497158,30.0402621 C36.585419,30.0402621 38.5870738,30.0402621 39.9546803,30.0402621 C42.00609,30.0402621 43.7641958,28.8338562 43.7641958,26.6018836 C43.7641958,24.3699109 42.00609,22.8223362 39.4511215,22.8223362 C39.4511215,22.153297 38.9277088,21.0508431 37.9000817,20.5691049 C36.8724546,20.0873667 35.6136981,20.3709404 35.2023851,20.5691049 C35.0734283,19.7885279 33.5906598,17.5280855 30.5974958,18.1458979 C27.6043318,18.7637104 27.0923444,21.9829467 27.6754125,23.4672136 Z" id="Path-3" fill="#FFFFFF"></path>
            <polygon id="Path-5" fill="#FFFFFF" points="50.0058594 58.932373 40.0058594 55.1628418 40.0058594 49.5 26 49.5 26 55.1628418 16 58.932373 16 60.6066895 50.0058594 60.6066895"></polygon>
            <g id="Group-6" transform="translate(55.000000, 21.000000)">
                <rect id="Rectangle" fill="#FFFFFF" x="0.5" y="0.5" width="21" height="39" rx="3.2"></rect>
                <path d="M18.4,2.5 C18.7037566,2.5 18.9787566,2.62312169 19.1778175,2.82218254 C19.3768783,3.02124339 19.5,3.29624339 19.5,3.6 L19.5,3.6 L19.5,36.4 C19.5,36.7037566 19.3768783,36.9787566 19.1778175,37.1778175 C18.9787566,37.3768783 18.7037566,37.5 18.4,37.5 L18.4,37.5 L3.6,37.5 C3.29624339,37.5 3.02124339,37.3768783 2.82218254,37.1778175 C2.62312169,36.9787566 2.5,36.7037566 2.5,36.4 L2.5,36.4 L2.5,3.6 C2.5,3.29624339 2.62312169,3.02124339 2.82218254,2.82218254 C3.02124339,2.62312169 3.29624339,2.5 3.6,2.5 L3.6,2.5 Z" id="Rectangle" fill="#F966FF"></path>
                <path d="M7.15206947,19.7235075 C6.7220887,19.7235075 5.38703131,20.0236327 5.38703131,21.4804681 C5.38703131,22.9373036 6.62286633,23.2644193 7.27184542,23.2644193 C7.70449815,23.2644193 8.81209599,23.2644193 10.5946389,23.2644193 C12.0407901,23.2644193 13.1390532,23.2644193 13.8894282,23.2644193 C15.0149907,23.2644193 15.9796239,22.6145265 15.9796239,21.4121593 C15.9796239,20.209792 15.0149907,19.376111 13.6131368,19.376111 C13.6131368,19.0156985 13.325952,18.4218049 12.7621161,18.1622917 C12.1982802,17.9027785 11.5076287,18.0555402 11.2819504,18.1622917 C11.2111948,17.7417936 10.3976329,16.5240897 8.755351,16.8569062 C7.11306906,17.1897228 6.83215309,18.9239305 7.15206947,19.7235075 Z" id="Path-3" fill="#FFFFFF"></path>
            </g>
        </g>
        <rect id="Rectangle" stroke="#10162F" x="0.5" y="1.5" width="639" height="231"></rect>
    </g>
</svg>