<svg class="main-svg" xmlns="http://www.w3.org/2000/svg" xmlns:xlink="http://www.w3.org/1999/xlink" width="1000" height="600" style="" viewBox="0 0 1000 600"><rect x="0" y="0" width="1000" height="600" style="fill: rgb(240, 240, 240); fill-opacity: 0.9;"/><defs id="defs-02a187"><g class="clips"><clipPath id="clip02a187xyplot" class="plotclip"><rect width="801" height="420"/></clipPath><clipPath class="axesclip" id="clip02a187x"><rect x="80" y="0" width="801" height="600"/></clipPath><clipPath class="axesclip" id="clip02a187y"><rect x="0" y="100" width="1000" height="420"/></clipPath><clipPath class="axesclip" id="clip02a187xy"><rect x="80" y="100" width="801" height="420"/></clipPath></g><g class="gradients"/></defs><g class="bglayer"><rect class="bg" x="80" y="100" width="801" height="420" style="fill: rgb(240, 240, 240); fill-opacity: 0.9; stroke-width: 0;"/></g><g class="layer-below"><g class="imagelayer"/><g class="shapelayer"/></g><g class="cartesianlayer"><g class="subplot xy"><g class="layer-subplot"><g class="shapelayer"/><g class="imagelayer"/></g><g class="gridlayer"><g class="x"/><g class="y"><path class="ygrid crisp" transform="translate(0,433.53)" d="M80,0h801" style="stroke: rgb(204, 204, 204); stroke-opacity: 0.9; stroke-width: 2px;"/><path class="ygrid crisp" transform="translate(0,351.18)" d="M80,0h801" style="stroke: rgb(204, 204, 204); stroke-opacity: 0.9; stroke-width: 2px;"/><path class="ygrid crisp" transform="translate(0,268.82)" d="M80,0h801" style="stroke: rgb(204, 204, 204); stroke-opacity: 0.9; stroke-width: 2px;"/><path class="ygrid crisp" transform="translate(0,186.47)" d="M80,0h801" style="stroke: rgb(204, 204, 204); stroke-opacity: 0.9; stroke-width: 2px;"/><path class="ygrid crisp" transform="translate(0,104.12)" d="M80,0h801" style="stroke: rgb(204, 204, 204); stroke-opacity: 0.9; stroke-width: 2px;"/></g></g><g class="zerolinelayer"><path class="yzl zl crisp" transform="translate(0,515.88)" d="M80,0h801" style="stroke: rgb(0, 0, 0); stroke-opacity: 1; stroke-width: 2px;"/></g><path class="xlines-below"/><path class="ylines-below"/><g class="overlines-below"/><g class="xaxislayer-below"/><g class="yaxislayer-below"/><g class="overaxes-below"/><g class="plot" transform="translate(80,100)" clip-path="url('#clip02a187xyplot')"><g class="scatterlayer mlayer"><g class="trace scatter trace49380e" style="stroke-miterlimit: 2; opacity: 1;"><g class="fills"/><g class="errorbars"/><g class="lines"><path class="js-line" d="M45.05,22.24L68.75,16.06L92.44,4.12L116.14,4.12" style="vector-effect: non-scaling-stroke; fill: none; stroke: rgb(128, 24, 122); stroke-opacity: 1; stroke-width: 3px; opacity: 1;"/><path class="js-line" d="M163.53,59.71L187.23,82.35L210.93,109.12L234.62,93.47L258.32,70" style="vector-effect: non-scaling-stroke; fill: none; stroke: rgb(128, 24, 122); stroke-opacity: 1; stroke-width: 3px; opacity: 1;"/><path class="js-line" d="M329.41,65.47L353.11,44.06L376.8,85.24L400.5,67.94L424.2,121.88L447.89,137.12L471.59,103.35L495.29,72.88" style="vector-effect: non-scaling-stroke; fill: none; stroke: rgb(128, 24, 122); stroke-opacity: 1; stroke-width: 3px; opacity: 1;"/><path class="js-line" d="M542.68,152.35L566.38,123.53L590.07,166.76L613.77,152.76L637.47,156.06L661.16,154.41L684.86,207.53L708.56,223.59L732.25,216.59L755.95,251.18" style="vector-effect: non-scaling-stroke; fill: none; stroke: rgb(128, 24, 122); stroke-opacity: 1; stroke-width: 3px; opacity: 1;"/></g><g class="points"><path class="point" transform="translate(45.05,22.24)" d="M4,0A4,4 0 1,1 0,-4A4,4 0 0,1 4,0Z" style="opacity: 1; stroke-width: 0px; fill: rgb(128, 24, 122); fill-opacity: 1;"/><path class="point" transform="translate(68.75,16.06)" d="M4,0A4,4 0 1,1 0,-4A4,4 0 0,1 4,0Z" style="opacity: 1; stroke-width: 0px; fill: rgb(128, 24, 122); fill-opacity: 1;"/><path class="point" transform="translate(92.44,4.12)" d="M4,0A4,4 0 1,1 0,-4A4,4 0 0,1 4,0Z" style="opacity: 1; stroke-width: 0px; fill: rgb(128, 24, 122); fill-opacity: 1;"/><path class="point" transform="translate(116.14,4.12)" d="M4,0A4,4 0 1,1 0,-4A4,4 0 0,1 4,0Z" style="opacity: 1; stroke-width: 0px; fill: rgb(128, 24, 122); fill-opacity: 1;"/><path class="point" transform="translate(163.53,59.71)" d="M4,0A4,4 0 1,1 0,-4A4,4 0 0,1 4,0Z" style="opacity: 1; stroke-width: 0px; fill: rgb(128, 24, 122); fill-opacity: 1;"/><path class="point" transform="translate(187.23,82.35)" d="M4,0A4,4 0 1,1 0,-4A4,4 0 0,1 4,0Z" style="opacity: 1; stroke-width: 0px; fill: rgb(128, 24, 122); fill-opacity: 1;"/><path class="point" transform="translate(210.93,109.12)" d="M4,0A4,4 0 1,1 0,-4A4,4 0 0,1 4,0Z" style="opacity: 1; stroke-width: 0px; fill: rgb(128, 24, 122); fill-opacity: 1;"/><path class="point" transform="translate(234.62,93.47)" d="M4,0A4,4 0 1,1 0,-4A4,4 0 0,1 4,0Z" style="opacity: 1; stroke-width: 0px; fill: rgb(128, 24, 122); fill-opacity: 1;"/><path class="point" transform="translate(258.32,70)" d="M4,0A4,4 0 1,1 0,-4A4,4 0 0,1 4,0Z" style="opacity: 1; stroke-width: 0px; fill: rgb(128, 24, 122); fill-opacity: 1;"/><path class="point" transform="translate(329.41,65.47)" d="M4,0A4,4 0 1,1 0,-4A4,4 0 0,1 4,0Z" style="opacity: 1; stroke-width: 0px; fill: rgb(128, 24, 122); fill-opacity: 1;"/><path class="point" transform="translate(353.11,44.06)" d="M4,0A4,4 0 1,1 0,-4A4,4 0 0,1 4,0Z" style="opacity: 1; stroke-width: 0px; fill: rgb(128, 24, 122); fill-opacity: 1;"/><path class="point" transform="translate(376.8,85.24)" d="M4,0A4,4 0 1,1 0,-4A4,4 0 0,1 4,0Z" style="opacity: 1; stroke-width: 0px; fill: rgb(128, 24, 122); fill-opacity: 1;"/><path class="point" transform="translate(400.5,67.94)" d="M4,0A4,4 0 1,1 0,-4A4,4 0 0,1 4,0Z" style="opacity: 1; stroke-width: 0px; fill: rgb(128, 24, 122); fill-opacity: 1;"/><path class="point" transform="translate(424.2,121.88)" d="M4,0A4,4 0 1,1 0,-4A4,4 0 0,1 4,0Z" style="opacity: 1; stroke-width: 0px; fill: rgb(128, 24, 122); fill-opacity: 1;"/><path class="point" transform="translate(447.89,137.12)" d="M4,0A4,4 0 1,1 0,-4A4,4 0 0,1 4,0Z" style="opacity: 1; stroke-width: 0px; fill: rgb(128, 24, 122); fill-opacity: 1;"/><path class="point" transform="translate(471.59,103.35)" d="M4,0A4,4 0 1,1 0,-4A4,4 0 0,1 4,0Z" style="opacity: 1; stroke-width: 0px; fill: rgb(128, 24, 122); fill-opacity: 1;"/><path class="point" transform="translate(495.29,72.88)" d="M4,0A4,4 0 1,1 0,-4A4,4 0 0,1 4,0Z" style="opacity: 1; stroke-width: 0px; fill: rgb(128, 24, 122); fill-opacity: 1;"/><path class="point" transform="translate(542.68,152.35)" d="M4,0A4,4 0 1,1 0,-4A4,4 0 0,1 4,0Z" style="opacity: 1; stroke-width: 0px; fill: rgb(128, 24, 122); fill-opacity: 1;"/><path class="point" transform="translate(566.38,123.53)" d="M4,0A4,4 0 1,1 0,-4A4,4 0 0,1 4,0Z" style="opacity: 1; stroke-width: 0px; fill: rgb(128, 24, 122); fill-opacity: 1;"/><path class="point" transform="translate(590.07,166.76)" d="M4,0A4,4 0 1,1 0,-4A4,4 0 0,1 4,0Z" style="opacity: 1; stroke-width: 0px; fill: rgb(128, 24, 122); fill-opacity: 1;"/><path class="point" transform="translate(613.77,152.76)" d="M4,0A4,4 0 1,1 0,-4A4,4 0 0,1 4,0Z" style="opacity: 1; stroke-width: 0px; fill: rgb(128, 24, 122); fill-opacity: 1;"/><path class="point" transform="translate(637.47,156.06)" d="M4,0A4,4 0 1,1 0,-4A4,4 0 0,1 4,0Z" style="opacity: 1; stroke-width: 0px; fill: rgb(128, 24, 122); fill-opacity: 1;"/><path class="point" transform="translate(661.16,154.41)" d="M4,0A4,4 0 1,1 0,-4A4,4 0 0,1 4,0Z" style="opacity: 1; stroke-width: 0px; fill: rgb(128, 24, 122); fill-opacity: 1;"/><path class="point" transform="translate(684.86,207.53)" d="M4,0A4,4 0 1,1 0,-4A4,4 0 0,1 4,0Z" style="opacity: 1; stroke-width: 0px; fill: rgb(128, 24, 122); fill-opacity: 1;"/><path class="point" transform="translate(708.56,223.59)" d="M4,0A4,4 0 1,1 0,-4A4,4 0 0,1 4,0Z" style="opacity: 1; stroke-width: 0px; fill: rgb(128, 24, 122); fill-opacity: 1;"/><path class="point" transform="translate(732.25,216.59)" d="M4,0A4,4 0 1,1 0,-4A4,4 0 0,1 4,0Z" style="opacity: 1; stroke-width: 0px; fill: rgb(128, 24, 122); fill-opacity: 1;"/><path class="point" transform="translate(755.95,251.18)" d="M4,0A4,4 0 1,1 0,-4A4,4 0 0,1 4,0Z" style="opacity: 1; stroke-width: 0px; fill: rgb(128, 24, 122); fill-opacity: 1;"/></g><g class="text"/></g><g class="trace scatter traceaa4b97" style="stroke-miterlimit: 2; opacity: 1;"><g class="fills"/><g class="errorbars"/><g class="lines"><path class="js-line" d="M45.05,397.76L68.75,403.94L92.44,415.88L116.14,415.88" style="vector-effect: non-scaling-stroke; fill: none; stroke: rgb(72, 168, 73); stroke-opacity: 1; stroke-width: 3px; opacity: 1;"/><path class="js-line" d="M163.53,360.29L187.23,337.65L210.93,310.88L234.62,326.53L258.32,350" style="vector-effect: non-scaling-stroke; fill: none; stroke: rgb(72, 168, 73); stroke-opacity: 1; stroke-width: 3px; opacity: 1;"/><path class="js-line" d="M329.41,354.53L353.11,375.94L376.8,334.76L400.5,352.06L424.2,298.12L447.89,282.88L471.59,316.65L495.29,347.12" style="vector-effect: non-scaling-stroke; fill: none; stroke: rgb(72, 168, 73); stroke-opacity: 1; stroke-width: 3px; opacity: 1;"/><path class="js-line" d="M542.68,267.65L566.38,296.47L590.07,253.24L613.77,267.24L637.47,263.94L661.16,265.59L684.86,212.47L708.56,196.41L732.25,203.41L755.95,168.82" style="vector-effect: non-scaling-stroke; fill: none; stroke: rgb(72, 168, 73); stroke-opacity: 1; stroke-width: 3px; opacity: 1;"/></g><g class="points"><path class="point" transform="translate(45.05,397.76)" d="M4,0A4,4 0 1,1 0,-4A4,4 0 0,1 4,0Z" style="opacity: 1; stroke-width: 0px; fill: rgb(72, 168, 73); fill-opacity: 1;"/><path class="point" transform="translate(68.75,403.94)" d="M4,0A4,4 0 1,1 0,-4A4,4 0 0,1 4,0Z" style="opacity: 1; stroke-width: 0px; fill: rgb(72, 168, 73); fill-opacity: 1;"/><path class="point" transform="translate(92.44,415.88)" d="M4,0A4,4 0 1,1 0,-4A4,4 0 0,1 4,0Z" style="opacity: 1; stroke-width: 0px; fill: rgb(72, 168, 73); fill-opacity: 1;"/><path class="point" transform="translate(116.14,415.88)" d="M4,0A4,4 0 1,1 0,-4A4,4 0 0,1 4,0Z" style="opacity: 1; stroke-width: 0px; fill: rgb(72, 168, 73); fill-opacity: 1;"/><path class="point" transform="translate(163.53,360.29)" d="M4,0A4,4 0 1,1 0,-4A4,4 0 0,1 4,0Z" style="opacity: 1; stroke-width: 0px; fill: rgb(72, 168, 73); fill-opacity: 1;"/><path class="point" transform="translate(187.23,337.65)" d="M4,0A4,4 0 1,1 0,-4A4,4 0 0,1 4,0Z" style="opacity: 1; stroke-width: 0px; fill: rgb(72, 168, 73); fill-opacity: 1;"/><path class="point" transform="translate(210.93,310.88)" d="M4,0A4,4 0 1,1 0,-4A4,4 0 0,1 4,0Z" style="opacity: 1; stroke-width: 0px; fill: rgb(72, 168, 73); fill-opacity: 1;"/><path class="point" transform="translate(234.62,326.53)" d="M4,0A4,4 0 1,1 0,-4A4,4 0 0,1 4,0Z" style="opacity: 1; stroke-width: 0px; fill: rgb(72, 168, 73); fill-opacity: 1;"/><path class="point" transform="translate(258.32,350)" d="M4,0A4,4 0 1,1 0,-4A4,4 0 0,1 4,0Z" style="opacity: 1; stroke-width: 0px; fill: rgb(72, 168, 73); fill-opacity: 1;"/><path class="point" transform="translate(329.41,354.53)" d="M4,0A4,4 0 1,1 0,-4A4,4 0 0,1 4,0Z" style="opacity: 1; stroke-width: 0px; fill: rgb(72, 168, 73); fill-opacity: 1;"/><path class="point" transform="translate(353.11,375.94)" d="M4,0A4,4 0 1,1 0,-4A4,4 0 0,1 4,0Z" style="opacity: 1; stroke-width: 0px; fill: rgb(72, 168, 73); fill-opacity: 1;"/><path class="point" transform="translate(376.8,334.76)" d="M4,0A4,4 0 1,1 0,-4A4,4 0 0,1 4,0Z" style="opacity: 1; stroke-width: 0px; fill: rgb(72, 168, 73); fill-opacity: 1;"/><path class="point" transform="translate(400.5,352.06)" d="M4,0A4,4 0 1,1 0,-4A4,4 0 0,1 4,0Z" style="opacity: 1; stroke-width: 0px; fill: rgb(72, 168, 73); fill-opacity: 1;"/><path class="point" transform="translate(424.2,298.12)" d="M4,0A4,4 0 1,1 0,-4A4,4 0 0,1 4,0Z" style="opacity: 1; stroke-width: 0px; fill: rgb(72, 168, 73); fill-opacity: 1;"/><path class="point" transform="translate(447.89,282.88)" d="M4,0A4,4 0 1,1 0,-4A4,4 0 0,1 4,0Z" style="opacity: 1; stroke-width: 0px; fill: rgb(72, 168, 73); fill-opacity: 1;"/><path class="point" transform="translate(471.59,316.65)" d="M4,0A4,4 0 1,1 0,-4A4,4 0 0,1 4,0Z" style="opacity: 1; stroke-width: 0px; fill: rgb(72, 168, 73); fill-opacity: 1;"/><path class="point" transform="translate(495.29,347.12)" d="M4,0A4,4 0 1,1 0,-4A4,4 0 0,1 4,0Z" style="opacity: 1; stroke-width: 0px; fill: rgb(72, 168, 73); fill-opacity: 1;"/><path class="point" transform="translate(542.68,267.65)" d="M4,0A4,4 0 1,1 0,-4A4,4 0 0,1 4,0Z" style="opacity: 1; stroke-width: 0px; fill: rgb(72, 168, 73); fill-opacity: 1;"/><path class="point" transform="translate(566.38,296.47)" d="M4,0A4,4 0 1,1 0,-4A4,4 0 0,1 4,0Z" style="opacity: 1; stroke-width: 0px; fill: rgb(72, 168, 73); fill-opacity: 1;"/><path class="point" transform="translate(590.07,253.24)" d="M4,0A4,4 0 1,1 0,-4A4,4 0 0,1 4,0Z" style="opacity: 1; stroke-width: 0px; fill: rgb(72, 168, 73); fill-opacity: 1;"/><path class="point" transform="translate(613.77,267.24)" d="M4,0A4,4 0 1,1 0,-4A4,4 0 0,1 4,0Z" style="opacity: 1; stroke-width: 0px; fill: rgb(72, 168, 73); fill-opacity: 1;"/><path class="point" transform="translate(637.47,263.94)" d="M4,0A4,4 0 1,1 0,-4A4,4 0 0,1 4,0Z" style="opacity: 1; stroke-width: 0px; fill: rgb(72, 168, 73); fill-opacity: 1;"/><path class="point" transform="translate(661.16,265.59)" d="M4,0A4,4 0 1,1 0,-4A4,4 0 0,1 4,0Z" style="opacity: 1; stroke-width: 0px; fill: rgb(72, 168, 73); fill-opacity: 1;"/><path class="point" transform="translate(684.86,212.47)" d="M4,0A4,4 0 1,1 0,-4A4,4 0 0,1 4,0Z" style="opacity: 1; stroke-width: 0px; fill: rgb(72, 168, 73); fill-opacity: 1;"/><path class="point" transform="translate(708.56,196.41)" d="M4,0A4,4 0 1,1 0,-4A4,4 0 0,1 4,0Z" style="opacity: 1; stroke-width: 0px; fill: rgb(72, 168, 73); fill-opacity: 1;"/><path class="point" transform="translate(732.25,203.41)" d="M4,0A4,4 0 1,1 0,-4A4,4 0 0,1 4,0Z" style="opacity: 1; stroke-width: 0px; fill: rgb(72, 168, 73); fill-opacity: 1;"/><path class="point" transform="translate(755.95,168.82)" d="M4,0A4,4 0 1,1 0,-4A4,4 0 0,1 4,0Z" style="opacity: 1; stroke-width: 0px; fill: rgb(72, 168, 73); fill-opacity: 1;"/></g><g class="text"/></g></g></g><g class="overplot"/><path class="xlines-above crisp" d="M0,0" style="fill: none;"/><path class="ylines-above crisp" d="M0,0" style="fill: none;"/><g class="overlines-above"/><g class="xaxislayer-above"><g class="xtick"><text text-anchor="middle" x="0" y="533" transform="translate(125.05,0)" style="font-family: 'Open Sans', verdana, arial, sans-serif; font-size: 12px; fill: rgb(42, 63, 95); fill-opacity: 1; white-space: pre;">1900</text></g><g class="xtick"><text text-anchor="middle" x="0" y="533" transform="translate(243.53,0)" style="font-family: 'Open Sans', verdana, arial, sans-serif; font-size: 12px; fill: rgb(42, 63, 95); fill-opacity: 1; white-space: pre;">1920</text></g><g class="xtick"><text text-anchor="middle" x="0" y="533" transform="translate(362.02,0)" style="font-family: 'Open Sans', verdana, arial, sans-serif; font-size: 12px; fill: rgb(42, 63, 95); fill-opacity: 1; white-space: pre;">1940</text></g><g class="xtick"><text text-anchor="middle" x="0" y="533" transform="translate(480.5,0)" style="font-family: 'Open Sans', verdana, arial, sans-serif; font-size: 12px; fill: rgb(42, 63, 95); fill-opacity: 1; white-space: pre;">1960</text></g><g class="xtick"><text text-anchor="middle" x="0" y="533" transform="translate(598.98,0)" style="font-family: 'Open Sans', verdana, arial, sans-serif; font-size: 12px; fill: rgb(42, 63, 95); fill-opacity: 1; white-space: pre;">1980</text></g><g class="xtick"><text text-anchor="middle" x="0" y="533" transform="translate(717.47,0)" style="font-family: 'Open Sans', verdana, arial, sans-serif; font-size: 12px; fill: rgb(42, 63, 95); fill-opacity: 1; white-space: pre;">2000</text></g><g class="xtick"><text text-anchor="middle" x="0" y="533" transform="translate(835.95,0)" style="font-family: 'Open Sans', verdana, arial, sans-serif; font-size: 12px; fill: rgb(42, 63, 95); fill-opacity: 1; white-space: pre;">2020</text></g></g><g class="yaxislayer-above"><g class="ytick"><text text-anchor="end" x="79" y="4.199999999999999" transform="translate(0,515.88)" style="font-family: 'Open Sans', verdana, arial, sans-serif; font-size: 12px; fill: rgb(42, 63, 95); fill-opacity: 1; white-space: pre;">0</text></g><g class="ytick"><text text-anchor="end" x="79" y="4.199999999999999" transform="translate(0,433.53)" style="font-family: 'Open Sans', verdana, arial, sans-serif; font-size: 12px; fill: rgb(42, 63, 95); fill-opacity: 1; white-space: pre;">20</text></g><g class="ytick"><text text-anchor="end" x="79" y="4.199999999999999" transform="translate(0,351.18)" style="font-family: 'Open Sans', verdana, arial, sans-serif; font-size: 12px; fill: rgb(42, 63, 95); fill-opacity: 1; white-space: pre;">40</text></g><g class="ytick"><text text-anchor="end" x="79" y="4.199999999999999" transform="translate(0,268.82)" style="font-family: 'Open Sans', verdana, arial, sans-serif; font-size: 12px; fill: rgb(42, 63, 95); fill-opacity: 1; white-space: pre;">60</text></g><g class="ytick"><text text-anchor="end" x="79" y="4.199999999999999" transform="translate(0,186.47)" style="font-family: 'Open Sans', verdana, arial, sans-serif; font-size: 12px; fill: rgb(42, 63, 95); fill-opacity: 1; white-space: pre;">80</text></g><g class="ytick"><text text-anchor="end" x="79" y="4.199999999999999" transform="translate(0,104.12)" style="font-family: 'Open Sans', verdana, arial, sans-serif; font-size: 12px; fill: rgb(42, 63, 95); fill-opacity: 1; white-space: pre;">100</text></g></g><g class="overaxes-above"/></g></g><g class="polarlayer"/><g class="ternarylayer"/><g class="geolayer"/><g class="funnelarealayer"/><g class="pielayer"/><g class="treemaplayer"/><g class="sunburstlayer"/><g class="glimages"/><defs id="topdefs-02a187"><g class="clips"/><clipPath id="legend02a187"><rect width="91" height="48" x="0" y="0"/></clipPath></defs><g class="layer-above"><g class="imagelayer"/><g class="shapelayer"/></g><g class="infolayer"><g class="legend" pointer-events="all" transform="translate(897.02,100)"><rect class="bg" shape-rendering="crispEdges" width="91" height="48" x="0" y="0" style="stroke: rgb(68, 68, 68); stroke-opacity: 1; fill: rgb(240, 240, 240); fill-opacity: 0.9; stroke-width: 0px;"/><g class="scrollbox" transform="" clip-path="url('#legend02a187')"><g class="groups"><g class="traces" transform="translate(0,14.5)" style="opacity: 1;"><text class="legendtext" text-anchor="start" x="40" y="4.680000000000001" style="font-family: 'Open Sans', verdana, arial, sans-serif; font-size: 12px; fill: rgb(42, 63, 95); fill-opacity: 1; white-space: pre;">Men</text><g class="layers" style="opacity: 1;"><g class="legendfill"/><g class="legendlines"><path class="js-line" d="M5,0h30" style="fill: none; stroke: rgb(128, 24, 122); stroke-opacity: 1; stroke-width: 3px;"/></g><g class="legendsymbols"><g class="legendpoints"><path class="scatterpts" transform="translate(20,0)" d="M4,0A4,4 0 1,1 0,-4A4,4 0 0,1 4,0Z" style="opacity: 1; stroke-width: 0px; fill: rgb(128, 24, 122); fill-opacity: 1;"/></g></g></g><rect class="legendtoggle" x="0" y="-9.5" width="85.5625" height="19" style="fill: rgb(0, 0, 0); fill-opacity: 0;"/></g><g class="traces" transform="translate(0,33.5)" style="opacity: 1;"><text class="legendtext" text-anchor="start" x="40" y="4.680000000000001" style="font-family: 'Open Sans', verdana, arial, sans-serif; font-size: 12px; fill: rgb(42, 63, 95); fill-opacity: 1; white-space: pre;">Women</text><g class="layers" style="opacity: 1;"><g class="legendfill"/><g class="legendlines"><path class="js-line" d="M5,0h30" style="fill: none; stroke: rgb(72, 168, 73); stroke-opacity: 1; stroke-width: 3px;"/></g><g class="legendsymbols"><g class="legendpoints"><path class="scatterpts" transform="translate(20,0)" d="M4,0A4,4 0 1,1 0,-4A4,4 0 0,1 4,0Z" style="opacity: 1; stroke-width: 0px; fill: rgb(72, 168, 73); fill-opacity: 1;"/></g></g></g><rect class="legendtoggle" x="0" y="-9.5" width="85.5625" height="19" style="fill: rgb(0, 0, 0); fill-opacity: 0;"/></g></g></g><rect class="scrollbar" rx="20" ry="3" width="0" height="0" x="0" y="0" style="fill: rgb(128, 139, 164); fill-opacity: 1;"/></g><g class="g-gtitle"><text class="gtitle" x="50" y="50" text-anchor="start" dy="0em" style="font-family: 'Open Sans', verdana, arial, sans-serif; font-size: 17px; fill: rgb(42, 63, 95); opacity: 1; font-weight: normal; white-space: pre;">Share of Medals Earned in Summer Games</text></g><g class="g-xtitle"/><g class="g-ytitle"><text class="ytitle" transform="rotate(-90,31.309375000000003,310)" x="31.309375000000003" y="310" text-anchor="middle" style="font-family: 'Open Sans', verdana, arial, sans-serif; font-size: 14px; fill: rgb(42, 63, 95); opacity: 1; font-weight: normal; white-space: pre;">Percentage of Medals Won</text></g></g></svg>